<?xml version="1.0" encoding="UTF-8" standalone="no"?>
<svg
   xmlns:ns0="http://www.iki.fi/pav/software/textext/"
   xmlns:dc="http://purl.org/dc/elements/1.1/"
   xmlns:cc="http://creativecommons.org/ns#"
   xmlns:rdf="http://www.w3.org/1999/02/22-rdf-syntax-ns#"
   xmlns:svg="http://www.w3.org/2000/svg"
   xmlns="http://www.w3.org/2000/svg"
   xmlns:sodipodi="http://sodipodi.sourceforge.net/DTD/sodipodi-0.dtd"
   xmlns:inkscape="http://www.inkscape.org/namespaces/inkscape"
   version="1.1"
   id="svg2"
   viewBox="0 0 761.81102 708.66142"
   height="200mm"
   width="215mm"
   inkscape:version="0.91 r13725"
   sodipodi:docname="edgeweight1.svg">
  <sodipodi:namedview
     pagecolor="#ffffff"
     bordercolor="#666666"
     borderopacity="1"
     objecttolerance="10"
     gridtolerance="10"
     guidetolerance="10"
     inkscape:pageopacity="0"
     inkscape:pageshadow="2"
     inkscape:window-width="2560"
     inkscape:window-height="1311"
     id="namedview92"
     showgrid="false"
     inkscape:zoom="1.0586724"
     inkscape:cx="501.51935"
     inkscape:cy="252.04763"
     inkscape:window-x="0"
     inkscape:window-y="55"
     inkscape:window-maximized="1"
     inkscape:current-layer="layer1" />
  <defs
     id="defs4" />
  <metadata
     id="metadata7">
    <rdf:RDF>
      <cc:Work
         rdf:about="">
        <dc:format>image/svg+xml</dc:format>
        <dc:type
           rdf:resource="http://purl.org/dc/dcmitype/StillImage" />
        <dc:title />
      </cc:Work>
    </rdf:RDF>
  </metadata>
  <g
     transform="translate(0,-343.70078)"
     id="layer1">
    <path
       id="path8068"
       d="m 207.34453,647.66258 c 0,0 44.20736,-135.74169 101.1696,-137.86837 96.30866,-3.59569 92.21629,230.74005 187.95725,219.69673 C 593.57152,718.29081 631.36417,469.128 631.36417,469.128"
       style="fill:none;fill-rule:evenodd;stroke:#000000;stroke-width:2;stroke-linecap:butt;stroke-linejoin:miter;stroke-miterlimit:4;stroke-dasharray:none;stroke-opacity:1"
       inkscape:connector-curvature="0" />
    <path
       id="path8068-8"
       d="m 209.68232,535.98008 c 0,0 44.20736,-135.74169 101.1696,-137.86837 96.30866,-3.59569 92.21629,230.74005 187.95725,219.69673 97.10014,-11.20013 134.8928,-260.36294 134.8928,-260.36294"
       style="fill:none;fill-rule:evenodd;stroke:#ff7000;stroke-width:2;stroke-linecap:butt;stroke-linejoin:miter;stroke-miterlimit:4;stroke-dasharray:none;stroke-opacity:1"
       inkscape:connector-curvature="0" />
    <path
       id="path8087-2"
       d="m -472.2426,374.50105 0,108.5"
       style="fill:none;fill-rule:evenodd;stroke:#000000;stroke-width:0.70699626px;stroke-linecap:butt;stroke-linejoin:miter;stroke-opacity:1"
       inkscape:connector-curvature="0" />
    <path
       id="path8068-8-8"
       d="m 205.62101,754.58786 c 0,0 44.20736,-135.74165 101.16961,-137.86833 96.30866,-3.59569 92.21629,230.74007 187.95725,219.69677 97.10014,-11.2001 134.8928,-260.36298 134.8928,-260.36298"
       style="fill:none;fill-rule:evenodd;stroke:#db00ef;stroke-width:2;stroke-linecap:butt;stroke-linejoin:miter;stroke-miterlimit:4;stroke-dasharray:none;stroke-opacity:1"
       inkscape:connector-curvature="0" />
    <path
       id="path8121"
       d="m 168.35458,358.27616 0,570 580,0"
       style="fill:none;fill-rule:evenodd;stroke:#000000;stroke-width:4;stroke-linecap:butt;stroke-linejoin:miter;stroke-miterlimit:4;stroke-dasharray:none;stroke-opacity:1"
       inkscape:connector-curvature="0" />
    <path
       id="path8123"
       d="m 148.35458,508.27616 40,0"
       style="fill:none;fill-rule:evenodd;stroke:#000000;stroke-width:1px;stroke-linecap:butt;stroke-linejoin:miter;stroke-opacity:1"
       inkscape:connector-curvature="0" />
    <path
       id="path8125"
       d="m 148.35458,728.27616 40,0"
       style="fill:none;fill-rule:evenodd;stroke:#000000;stroke-width:1px;stroke-linecap:butt;stroke-linejoin:miter;stroke-opacity:1"
       inkscape:connector-curvature="0" />
    <path
       id="path8127"
       d="m 308.35458,918.27616 0,29.99998"
       style="fill:none;fill-rule:evenodd;stroke:#000000;stroke-width:1px;stroke-linecap:butt;stroke-linejoin:miter;stroke-opacity:1"
       inkscape:connector-curvature="0" />
    <path
       id="path8129"
       d="m 488.35458,918.27616 0,29.99998"
       style="fill:none;fill-rule:evenodd;stroke:#000000;stroke-width:1px;stroke-linecap:butt;stroke-linejoin:miter;stroke-opacity:1"
       inkscape:connector-curvature="0" />
    <path
       id="path8133"
       d="M 144.38734,615.35197 741.4868,620.4517"
       style="fill:none;fill-rule:evenodd;stroke:#000000;stroke-width:3;stroke-linecap:butt;stroke-linejoin:miter;stroke-miterlimit:4;stroke-dasharray:6, 6;stroke-dashoffset:0;stroke-opacity:1"
       inkscape:connector-curvature="0" />
    <g
       style="font-style:normal;font-variant:normal;font-weight:normal;font-stretch:normal;letter-spacing:normal;word-spacing:normal;text-anchor:start;fill:none;fill-opacity:1;fill-rule:evenodd;stroke:#000000;stroke-linecap:butt;stroke-linejoin:miter;stroke-miterlimit:10.43299961;stroke-dasharray:none;stroke-dashoffset:0;stroke-opacity:1"
       ns0:preamble=""
       ns0:text="$f$"
       word-spacing="normal"
       letter-spacing="normal"
       font-size-adjust="none"
       font-stretch="normal"
       font-weight="normal"
       font-variant="normal"
       font-style="normal"
       stroke-miterlimit="10.433"
       xml:space="preserve"
       transform="matrix(3,0,0,-3,-37.035224,2445.2389)"
       id="g8286"><path
         id="path8288"
         d="m 227.09,661.21 0.86,0 c 0.2,0 0.3,0 0.3,0.2 0,0.11 -0.1,0.11 -0.27,0.11 l -0.83,0 0.21,1.13 c 0.04,0.21 0.18,0.91 0.24,1.03 0.09,0.19 0.26,0.34 0.47,0.34 0.04,0 0.3,0 0.49,-0.18 -0.44,-0.04 -0.54,-0.39 -0.54,-0.54 0,-0.22 0.18,-0.34 0.37,-0.34 0.26,0 0.55,0.21 0.55,0.59 0,0.46 -0.46,0.69 -0.87,0.69 -0.34,0 -0.97,-0.18 -1.27,-1.16 -0.06,-0.21 -0.09,-0.31 -0.33,-1.56 l -0.68,0 c -0.19,0 -0.3,0 -0.3,-0.19 0,-0.12 0.09,-0.12 0.27,-0.12 l 0.66,0 -0.74,-3.93 c -0.18,-0.96 -0.35,-1.86 -0.87,-1.86 -0.04,0 -0.29,0 -0.48,0.18 0.46,0.03 0.55,0.38 0.55,0.53 0,0.23 -0.18,0.35 -0.37,0.35 -0.26,0 -0.55,-0.22 -0.55,-0.6 0,-0.44 0.44,-0.68 0.85,-0.68 0.55,0 0.95,0.58 1.12,0.96 0.32,0.63 0.55,1.83 0.56,1.9 z"
         style="fill:#000000;stroke-width:0"
         inkscape:connector-curvature="0" /></g>    <g
       style="font-style:normal;font-variant:normal;font-weight:normal;font-stretch:normal;letter-spacing:normal;word-spacing:normal;text-anchor:start;fill:none;fill-opacity:1;fill-rule:evenodd;stroke:#000000;stroke-linecap:butt;stroke-linejoin:miter;stroke-miterlimit:10.43299961;stroke-dasharray:none;stroke-dashoffset:0;stroke-opacity:1"
       id="g8710"
       transform="matrix(3,0,0,-3,-567.70554,2592.2523)"
       xml:space="preserve"
       stroke-miterlimit="10.433"
       font-style="normal"
       font-variant="normal"
       font-weight="normal"
       font-stretch="normal"
       font-size-adjust="none"
       letter-spacing="normal"
       word-spacing="normal"
       ns0:text="$=$"
       ns0:preamble=""><path
         style="fill:#000000;stroke-width:0"
         d="m 230.28,660.48 0.03,0 0.03,0 0.03,0 0.01,0.01 0.02,0 0.01,0 0.02,0 0.01,0 0.02,0 0.01,0.01 0.01,0 0.02,0 0.01,0.01 0.01,0 0.01,0.01 0.01,0 0.01,0.01 0.01,0.01 0.01,0.01 0.01,0.01 0.01,0.01 0,0 0.01,0.01 0,0 0,0.01 0.01,0.01 0,0 0,0.01 0,0.01 0.01,0 0,0.01 0,0.01 0,0.01 0,0.01 0,0 0,0.01 0,0.01 c 0,0.2 -0.19,0.2 -0.33,0.2 l -5.97,0 c -0.14,0 -0.33,0 -0.33,-0.2 0,-0.2 0.19,-0.2 0.34,-0.2 z"
         id="path8712"
         inkscape:connector-curvature="0" /><path
         style="fill:#000000;stroke-width:0"
         d="m 230.29,658.56 0.02,0 0.01,0 0.03,0 0.02,0 0.02,0 0.01,0 0.02,0 0.01,0 0.01,0 0.02,0.01 0.01,0 0.01,0 0.02,0.01 0.01,0 0.01,0.01 0.01,0 0.01,0.01 0.01,0 0.01,0.01 0.01,0.01 0.01,0.01 0.01,0 0,0.01 0,0.01 0.01,0 0,0.01 0,0 0.01,0.01 0,0.01 0,0 0,0.01 0.01,0.01 0,0 0,0.01 0,0.01 0,0.01 0,0.01 0,0.01 0,0.01 c 0,0.19 -0.19,0.19 -0.34,0.19 l -5.95,0 c -0.15,0 -0.34,0 -0.34,-0.19 0,-0.2 0.19,-0.2 0.33,-0.2 z"
         id="path8714"
         inkscape:connector-curvature="0" /></g>    <g
       id="content"
       transform="matrix(3,0,0,-3,-33.919444,2350.6892)"
       xml:space="preserve"
       stroke-miterlimit="10.433"
       font-style="normal"
       font-variant="normal"
       font-weight="normal"
       font-stretch="normal"
       font-size-adjust="none"
       letter-spacing="normal"
       word-spacing="normal"
       ns0:text="$f+\\varepsilon^*$"
       ns0:preamble=""
       style="font-style:normal;font-variant:normal;font-weight:normal;font-stretch:normal;letter-spacing:normal;word-spacing:normal;text-anchor:start;fill:none;fill-opacity:1;fill-rule:evenodd;stroke:#000000;stroke-linecap:butt;stroke-linejoin:miter;stroke-miterlimit:10.43299961;stroke-dasharray:none;stroke-dashoffset:0;stroke-opacity:1"><path
         d="m 227.09,661.21 0.86,0 c 0.2,0 0.3,0 0.3,0.2 0,0.11 -0.1,0.11 -0.27,0.11 l -0.83,0 0.21,1.13 c 0.04,0.21 0.18,0.91 0.24,1.03 0.09,0.19 0.26,0.34 0.47,0.34 0.04,0 0.3,0 0.49,-0.18 -0.44,-0.04 -0.54,-0.39 -0.54,-0.54 0,-0.22 0.18,-0.34 0.37,-0.34 0.26,0 0.55,0.21 0.55,0.59 0,0.46 -0.46,0.69 -0.87,0.69 -0.34,0 -0.97,-0.18 -1.27,-1.16 -0.06,-0.21 -0.09,-0.31 -0.33,-1.56 l -0.68,0 c -0.19,0 -0.3,0 -0.3,-0.19 0,-0.12 0.09,-0.12 0.27,-0.12 l 0.66,0 -0.74,-3.93 c -0.18,-0.96 -0.35,-1.86 -0.87,-1.86 -0.04,0 -0.29,0 -0.48,0.18 0.46,0.03 0.55,0.38 0.55,0.53 0,0.23 -0.18,0.35 -0.37,0.35 -0.26,0 -0.55,-0.22 -0.55,-0.6 0,-0.44 0.44,-0.68 0.85,-0.68 0.55,0 0.95,0.58 1.12,0.96 0.32,0.63 0.55,1.83 0.56,1.9 z"
         id="path8451"
         style="fill:#000000;stroke-width:0"
         inkscape:connector-curvature="0" /><path
         d="m 235.68,659.52 2.78,0 c 0.14,0 0.33,0 0.33,0.2 0,0.2 -0.19,0.2 -0.33,0.2 l -2.78,0 0,2.78 c 0,0.14 0,0.33 -0.2,0.33 -0.2,0 -0.2,-0.19 -0.2,-0.33 l 0,-2.78 -2.8,0 c -0.14,0 -0.33,0 -0.33,-0.2 0,-0.2 0.19,-0.2 0.33,-0.2 l 2.8,0 0,-2.78 c 0,-0.14 0,-0.33 0.2,-0.33 0.2,0 0.2,0.19 0.2,0.33 z"
         id="path8453"
         style="fill:#000000;stroke-width:0"
         inkscape:connector-curvature="0" /><path
         d="m 242.96,659.49 0.04,-0.01 0.03,-0.01 0.03,-0.02 0.03,-0.01 0.03,-0.01 0.03,0 0.03,-0.01 0.02,-0.01 0.03,-0.01 0.03,0 0.06,-0.02 0.05,0 0.06,-0.01 0.05,-0.01 0.05,0 0.05,0 0.05,-0.01 0.05,0 0.05,0 0.05,0 0.04,0 0,0.22 c -0.22,0 -0.34,0 -0.53,0.05 l 0,0 c 0.23,0.08 0.44,0.09 0.61,0.09 0.25,0 0.29,-0.01 0.47,-0.06 -0.15,-0.07 -0.17,-0.08 -0.55,-0.08 l 0,-0.22 c 0.26,0 0.81,0 0.81,0.31 0,0.24 -0.35,0.27 -0.73,0.27 -0.21,0 -0.56,-0.02 -0.92,-0.19 -0.23,0.12 -0.4,0.31 -0.4,0.57 0,0.61 0.97,0.97 1.87,0.97 0.16,0 0.52,0 0.92,-0.28 0.11,-0.08 0.13,-0.1 0.2,-0.1 0.13,0 0.27,0.13 0.27,0.27 0,0.19 -0.61,0.56 -1.29,0.56 -1.15,0 -2.22,-0.66 -2.22,-1.42 0,-0.42 0.36,-0.67 0.4,-0.7 -0.59,-0.33 -0.91,-0.89 -0.91,-1.34 0,-0.65 0.57,-1.25 1.62,-1.25 1.32,0 1.88,0.87 1.88,1.02 0,0.06 -0.05,0.1 -0.11,0.1 -0.05,0 -0.08,-0.04 -0.1,-0.07 -0.14,-0.23 -0.38,-0.6 -1.58,-0.6 -0.6,0 -1.45,0.15 -1.45,0.86 0,0.33 0.28,0.86 0.88,1.16 z"
         id="path8455"
         style="fill:#000000;stroke-width:0"
         inkscape:connector-curvature="0" /><path
         d="m 248.46,662.58 0.05,0.03 0.06,0.02 0.05,0.02 0.04,0.02 0.05,0.02 0.04,0.02 0.05,0.02 0.04,0.01 0.04,0.02 0.03,0.02 0.04,0.01 0.04,0.02 0.03,0.01 0.03,0.01 0.03,0.02 0.04,0.01 0.02,0.01 0.03,0.01 0.03,0.02 0.02,0.01 0.03,0.01 0.02,0.01 0.03,0.01 0.02,0.01 0.02,0.01 0.02,0 0.04,0.02 0.04,0.02 0.03,0.01 c 0.13,0.06 0.19,0.09 0.19,0.22 0,0.12 -0.09,0.22 -0.21,0.22 -0.05,0 -0.07,0 -0.15,-0.06 l -0.95,-0.63 0.11,1.03 c 0.01,0.12 0,0.29 -0.21,0.29 -0.09,0 -0.22,-0.05 -0.22,-0.2 0,-0.07 0.03,-0.28 0.03,-0.35 0.02,-0.11 0.07,-0.61 0.08,-0.77 l -0.94,0.63 c -0.07,0.04 -0.09,0.06 -0.16,0.06 -0.12,0 -0.21,-0.1 -0.21,-0.22 0,-0.14 0.08,-0.18 0.14,-0.2 l 1.06,-0.44 c -0.57,-0.25 -0.83,-0.35 -1.01,-0.43 -0.13,-0.06 -0.19,-0.08 -0.19,-0.22 0,-0.12 0.09,-0.22 0.21,-0.22 0.05,0 0.07,0 0.15,0.06 l 0.95,0.64 -0.11,-1.12 c 0,-0.16 0.13,-0.21 0.22,-0.21 0.08,0 0.21,0.05 0.21,0.21 0,0.06 -0.03,0.27 -0.03,0.34 -0.02,0.12 -0.07,0.62 -0.08,0.78 l 0.84,-0.56 c 0.18,-0.14 0.19,-0.14 0.26,-0.14 0.12,0 0.21,0.1 0.21,0.22 0,0.14 -0.08,0.18 -0.14,0.2 z"
         id="path8457"
         style="fill:#000000;stroke-width:0"
         inkscape:connector-curvature="0" /></g>    <g
       style="font-style:normal;font-variant:normal;font-weight:normal;font-stretch:normal;letter-spacing:normal;word-spacing:normal;text-anchor:start;fill:none;fill-opacity:1;fill-rule:evenodd;stroke:#000000;stroke-linecap:butt;stroke-linejoin:miter;stroke-miterlimit:10.43299961;stroke-dasharray:none;stroke-dashoffset:0;stroke-opacity:1"
       ns0:preamble=""
       ns0:text="$f-\\varepsilon^*$"
       word-spacing="normal"
       letter-spacing="normal"
       font-size-adjust="none"
       font-stretch="normal"
       font-weight="normal"
       font-variant="normal"
       font-style="normal"
       stroke-miterlimit="10.433"
       xml:space="preserve"
       transform="matrix(3,0,0,-3,-34.842754,2554.1314)"
       id="g8583"><path
         id="path8585"
         d="m 227.09,661.21 0.86,0 c 0.2,0 0.3,0 0.3,0.2 0,0.11 -0.1,0.11 -0.27,0.11 l -0.83,0 0.21,1.13 c 0.04,0.21 0.18,0.91 0.24,1.03 0.09,0.19 0.26,0.34 0.47,0.34 0.04,0 0.3,0 0.49,-0.18 -0.44,-0.04 -0.54,-0.39 -0.54,-0.54 0,-0.22 0.18,-0.34 0.37,-0.34 0.26,0 0.55,0.21 0.55,0.59 0,0.46 -0.46,0.69 -0.87,0.69 -0.34,0 -0.97,-0.18 -1.27,-1.16 -0.06,-0.21 -0.09,-0.31 -0.33,-1.56 l -0.68,0 c -0.19,0 -0.3,0 -0.3,-0.19 0,-0.12 0.09,-0.12 0.27,-0.12 l 0.66,0 -0.74,-3.93 c -0.18,-0.96 -0.35,-1.86 -0.87,-1.86 -0.04,0 -0.29,0 -0.48,0.18 0.46,0.03 0.55,0.38 0.55,0.53 0,0.23 -0.18,0.35 -0.37,0.35 -0.26,0 -0.55,-0.22 -0.55,-0.6 0,-0.44 0.44,-0.68 0.85,-0.68 0.55,0 0.95,0.58 1.12,0.96 0.32,0.63 0.55,1.83 0.56,1.9 z"
         style="fill:#000000;stroke-width:0"
         inkscape:connector-curvature="0" /><path
         id="path8587"
         d="m 238.17,659.52 0.03,0 0.03,0 0.03,0 0.02,0 0.01,0 0.02,0 0.01,0.01 0.02,0 0.01,0 0.02,0 0.01,0.01 0.01,0 0.02,0 0.01,0.01 0.01,0.01 0.01,0 0.01,0.01 0.01,0.01 0.01,0 0.01,0.01 0.01,0.01 0,0.01 0,0 0.01,0.01 0,0.01 0,0 0,0.01 0.01,0.01 0,0 0,0.01 0,0.01 0,0.01 0,0 0.01,0.01 0,0.01 0,0.01 0,0.01 c 0,0.2 -0.18,0.2 -0.35,0.2 l -5.4,0 c -0.17,0 -0.35,0 -0.35,-0.2 0,-0.2 0.18,-0.2 0.35,-0.2 z"
         style="fill:#000000;stroke-width:0"
         inkscape:connector-curvature="0" /><path
         id="path8589"
         d="m 242.96,659.49 0.04,-0.01 0.03,-0.01 0.03,-0.02 0.03,-0.01 0.03,-0.01 0.03,0 0.03,-0.01 0.02,-0.01 0.03,-0.01 0.03,0 0.06,-0.02 0.05,0 0.06,-0.01 0.05,-0.01 0.05,0 0.05,0 0.05,-0.01 0.05,0 0.05,0 0.05,0 0.04,0 0,0.22 c -0.22,0 -0.34,0 -0.53,0.05 l 0,0 c 0.23,0.08 0.44,0.09 0.61,0.09 0.25,0 0.29,-0.01 0.47,-0.06 -0.15,-0.07 -0.17,-0.08 -0.55,-0.08 l 0,-0.22 c 0.26,0 0.81,0 0.81,0.31 0,0.24 -0.35,0.27 -0.73,0.27 -0.21,0 -0.56,-0.02 -0.92,-0.19 -0.23,0.12 -0.4,0.31 -0.4,0.57 0,0.61 0.97,0.97 1.87,0.97 0.16,0 0.52,0 0.92,-0.28 0.11,-0.08 0.13,-0.1 0.2,-0.1 0.13,0 0.27,0.13 0.27,0.27 0,0.19 -0.61,0.56 -1.29,0.56 -1.15,0 -2.22,-0.66 -2.22,-1.42 0,-0.42 0.36,-0.67 0.4,-0.7 -0.59,-0.33 -0.91,-0.89 -0.91,-1.34 0,-0.65 0.57,-1.25 1.62,-1.25 1.32,0 1.88,0.87 1.88,1.02 0,0.06 -0.05,0.1 -0.11,0.1 -0.05,0 -0.08,-0.04 -0.1,-0.07 -0.14,-0.23 -0.38,-0.6 -1.58,-0.6 -0.6,0 -1.45,0.15 -1.45,0.86 0,0.33 0.28,0.86 0.88,1.16 z"
         style="fill:#000000;stroke-width:0"
         inkscape:connector-curvature="0" /><path
         id="path8591"
         d="m 248.46,662.58 0.05,0.03 0.06,0.02 0.05,0.02 0.04,0.02 0.05,0.02 0.04,0.02 0.05,0.02 0.04,0.01 0.04,0.02 0.03,0.02 0.04,0.01 0.04,0.02 0.03,0.01 0.03,0.01 0.03,0.02 0.04,0.01 0.02,0.01 0.03,0.01 0.03,0.02 0.02,0.01 0.03,0.01 0.02,0.01 0.03,0.01 0.02,0.01 0.02,0.01 0.02,0 0.04,0.02 0.04,0.02 0.03,0.01 c 0.13,0.06 0.19,0.09 0.19,0.22 0,0.12 -0.09,0.22 -0.21,0.22 -0.05,0 -0.07,0 -0.15,-0.06 l -0.95,-0.63 0.11,1.03 c 0.01,0.12 0,0.29 -0.21,0.29 -0.09,0 -0.22,-0.05 -0.22,-0.2 0,-0.07 0.03,-0.28 0.03,-0.35 0.02,-0.11 0.07,-0.61 0.08,-0.77 l -0.94,0.63 c -0.07,0.04 -0.09,0.06 -0.16,0.06 -0.12,0 -0.21,-0.1 -0.21,-0.22 0,-0.14 0.08,-0.18 0.14,-0.2 l 1.06,-0.44 c -0.57,-0.25 -0.83,-0.35 -1.01,-0.43 -0.13,-0.06 -0.19,-0.08 -0.19,-0.22 0,-0.12 0.09,-0.22 0.21,-0.22 0.05,0 0.07,0 0.15,0.06 l 0.95,0.64 -0.11,-1.12 c 0,-0.16 0.13,-0.21 0.22,-0.21 0.08,0 0.21,0.05 0.21,0.21 0,0.06 -0.03,0.27 -0.03,0.34 -0.02,0.12 -0.07,0.62 -0.08,0.78 l 0.84,-0.56 c 0.18,-0.14 0.19,-0.14 0.26,-0.14 0.12,0 0.21,0.1 0.21,0.22 0,0.14 -0.08,0.18 -0.14,0.2 z"
         style="fill:#000000;stroke-width:0"
         inkscape:connector-curvature="0" /></g>    <path
       id="path8127-2"
       d="m 211.68021,911.75677 0,33.49497"
       style="fill:none;fill-rule:evenodd;stroke:#000000;stroke-width:1.0566448px;stroke-linecap:butt;stroke-linejoin:miter;stroke-opacity:1"
       inkscape:connector-curvature="0" />
    <path
       id="path8127-1"
       d="m 625.78707,911.75676 0,34.36868"
       style="fill:none;fill-rule:evenodd;stroke:#000000;stroke-width:1.07033765px;stroke-linecap:butt;stroke-linejoin:miter;stroke-opacity:1"
       inkscape:connector-curvature="0" />
    <path
       style="fill:none;fill-rule:evenodd;stroke:#db00ef;stroke-width:3.01235962;stroke-linecap:butt;stroke-linejoin:miter;stroke-miterlimit:4;stroke-dasharray:none;stroke-opacity:1"
       d="m 209.05856,989.66598 417.64659,2.62072"
       id="path8149"
       inkscape:connector-curvature="0" />
    <path
       id="path8127-1-1"
       d="m 649.79286,912.75845 0,34.36865"
       style="fill:none;fill-rule:evenodd;stroke:#000000;stroke-width:1.07033765px;stroke-linecap:butt;stroke-linejoin:miter;stroke-opacity:1"
       inkscape:connector-curvature="0" />
    <path
       style="fill:none;fill-rule:evenodd;stroke:#ff7000;stroke-width:3.09740496;stroke-linecap:butt;stroke-linejoin:miter;stroke-miterlimit:4;stroke-dasharray:none;stroke-opacity:1"
       d="m 209.9292,1030.2964 442.11739,2.6174"
       id="path8149-1"
       inkscape:connector-curvature="0" />
    <g
       ns0:preamble=""
       ns0:text=")"
       word-spacing="normal"
       letter-spacing="normal"
       font-size-adjust="none"
       font-stretch="normal"
       font-weight="normal"
       font-variant="normal"
       font-style="normal"
       stroke-miterlimit="10.433"
       xml:space="preserve"
       transform="matrix(3,0,0,-3,-50.439948,2972.3862)"
       id="g8861"
       style="font-style:normal;font-variant:normal;font-weight:normal;font-stretch:normal;letter-spacing:normal;word-spacing:normal;text-anchor:start;fill:none;fill-opacity:1;fill-rule:evenodd;stroke:#000000;stroke-linecap:butt;stroke-linejoin:miter;stroke-miterlimit:10.43299961;stroke-dasharray:none;stroke-dashoffset:0;stroke-opacity:1"><path
         id="path8863"
         d="m 226.31,659.72 0,0.07 0,0.08 0,0.08 0,0.08 -0.01,0.17 -0.01,0.17 -0.02,0.18 -0.02,0.19 -0.03,0.2 -0.03,0.2 -0.04,0.2 -0.04,0.21 -0.06,0.21 -0.06,0.21 -0.07,0.21 -0.08,0.21 -0.04,0.11 -0.05,0.11 -0.04,0.1 -0.05,0.11 c -0.6,1.22 -1.46,1.86 -1.56,1.86 -0.06,0 -0.1,-0.03 -0.1,-0.09 0,-0.03 0,-0.05 0.19,-0.23 0.98,-0.99 1.55,-2.57 1.55,-4.64 0,-1.7 -0.37,-3.45 -1.61,-4.7 -0.13,-0.12 -0.13,-0.14 -0.13,-0.17 0,-0.06 0.04,-0.1 0.1,-0.1 0.1,0 1,0.68 1.59,1.94 0.5,1.09 0.62,2.19 0.62,3.03 z"
         style="fill:#000000;stroke-width:0"
         inkscape:connector-curvature="0" /></g>    <g
       id="g8240"
       transform="matrix(3,0,0,-3,-465.20854,2966.6759)"
       xml:space="preserve"
       stroke-miterlimit="10.433"
       font-style="normal"
       font-variant="normal"
       font-weight="normal"
       font-stretch="normal"
       font-size-adjust="none"
       letter-spacing="normal"
       word-spacing="normal"
       ns0:text="["
       ns0:preamble=""
       style="font-style:normal;font-variant:normal;font-weight:normal;font-stretch:normal;letter-spacing:normal;word-spacing:normal;text-anchor:start;fill:none;fill-opacity:1;fill-rule:evenodd;stroke:#000000;stroke-linecap:butt;stroke-linejoin:miter;stroke-miterlimit:10.43299961;stroke-dasharray:none;stroke-dashoffset:0;stroke-opacity:1"><polygon
         style="fill:#000000;stroke-width:0"
         points="225.98,655.15 225.01,655.15 225.01,664.29 225.98,664.29 225.98,664.68 224.61,664.68 224.61,654.75 225.98,654.75 "
         id="polygon8242" /></g>    <g
       style="font-style:normal;font-variant:normal;font-weight:normal;font-stretch:normal;letter-spacing:normal;word-spacing:normal;text-anchor:start;fill:none;fill-opacity:1;fill-rule:evenodd;stroke:#000000;stroke-linecap:butt;stroke-linejoin:miter;stroke-miterlimit:10.43299961;stroke-dasharray:none;stroke-dashoffset:0;stroke-opacity:1"
       ns0:preamble=""
       ns0:text="["
       word-spacing="normal"
       letter-spacing="normal"
       font-size-adjust="none"
       font-stretch="normal"
       font-weight="normal"
       font-variant="normal"
       font-style="normal"
       stroke-miterlimit="10.433"
       xml:space="preserve"
       transform="matrix(3,0,0,-3,-465.04479,3009.0025)"
       id="g8422"><polygon
         style="fill:#000000;stroke-width:0"
         id="polygon8424"
         points="225.98,655.15 225.01,655.15 225.01,664.29 225.98,664.29 225.98,664.68 224.61,664.68 224.61,654.75 225.98,654.75 " /></g>    <g
       id="g8604"
       transform="matrix(2.9999979,0,0,-3.6159263,-21.610186,3417.6288)"
       xml:space="preserve"
       stroke-miterlimit="10.433"
       font-style="normal"
       font-variant="normal"
       font-weight="normal"
       font-stretch="normal"
       font-size-adjust="none"
       letter-spacing="normal"
       word-spacing="normal"
       ns0:text="]"
       ns0:preamble=""
       style="font-style:normal;font-variant:normal;font-weight:normal;font-stretch:normal;letter-spacing:normal;word-spacing:normal;text-anchor:start;fill:none;fill-opacity:1;fill-rule:evenodd;stroke:#000000;stroke-linecap:butt;stroke-linejoin:miter;stroke-miterlimit:10.43299961;stroke-dasharray:none;stroke-dashoffset:0;stroke-opacity:1"><polygon
         style="fill:#000000;stroke-width:0"
         points="224.62,655.15 223.65,655.15 223.65,654.75 225.02,654.75 225.02,664.68 223.65,664.68 223.65,664.29 224.62,664.29 "
         id="polygon8606" /></g>    <g
       id="g8241"
       transform="matrix(3,0,0,-3,-371.55914,2945.5782)"
       xml:space="preserve"
       stroke-miterlimit="10.433"
       font-style="normal"
       font-variant="normal"
       font-weight="normal"
       font-stretch="normal"
       font-size-adjust="none"
       letter-spacing="normal"
       word-spacing="normal"
       ns0:text="$t_i$"
       ns0:preamble=""
       style="font-style:normal;font-variant:normal;font-weight:normal;font-stretch:normal;letter-spacing:normal;word-spacing:normal;text-anchor:start;fill:none;fill-opacity:1;fill-rule:evenodd;stroke:#000000;stroke-linecap:butt;stroke-linejoin:miter;stroke-miterlimit:10.43299961;stroke-dasharray:none;stroke-dashoffset:0;stroke-opacity:1"><path
         d="m 225.49,661.21 0.93,0 c 0.2,0 0.3,0 0.3,0.2 0,0.11 -0.1,0.11 -0.28,0.11 l -0.87,0 c 0.36,1.41 0.41,1.61 0.41,1.66 0,0.17 -0.13,0.27 -0.29,0.27 -0.03,0 -0.31,-0.01 -0.4,-0.35 l -0.39,-1.58 -0.94,0 c -0.2,0 -0.3,0 -0.3,-0.19 0,-0.12 0.08,-0.12 0.28,-0.12 l 0.88,0 c -0.72,-2.82 -0.76,-2.99 -0.76,-3.17 0,-0.54 0.38,-0.91 0.92,-0.91 1.01,0 1.58,1.45 1.58,1.53 0,0.1 -0.08,0.1 -0.12,0.1 -0.09,0 -0.1,-0.04 -0.15,-0.14 -0.42,-1.04 -0.95,-1.28 -1.29,-1.28 -0.21,0 -0.31,0.13 -0.31,0.46 0,0.24 0.02,0.31 0.06,0.48 z"
         id="path8243"
         inkscape:connector-curvature="0"
         style="fill:#000000;stroke-width:0" /><path
         d="m 229.29,660.09 0,0.01 0,0.01 0,0.01 0,0.01 0,0.01 0,0.01 -0.01,0.01 0,0.02 -0.01,0.01 0,0.01 -0.01,0.01 0,0.01 -0.01,0.01 -0.01,0.01 0,0.01 -0.01,0.01 -0.01,0.01 -0.01,0.01 -0.01,0.01 -0.01,0.01 -0.01,0 -0.01,0.01 -0.02,0.01 -0.01,0.01 -0.01,0 -0.02,0.01 -0.01,0 -0.02,0 -0.01,0.01 -0.02,0 -0.02,0 -0.01,0 c -0.19,0 -0.4,-0.18 -0.4,-0.38 0,-0.12 0.09,-0.26 0.28,-0.26 0.21,0 0.39,0.19 0.39,0.38 z"
         id="path8245"
         inkscape:connector-curvature="0"
         style="fill:#000000;stroke-width:0" /><path
         d="m 227.87,656.55 -0.01,-0.01 0,-0.02 -0.01,-0.03 -0.01,-0.02 0,-0.02 -0.01,-0.01 0,-0.02 -0.01,-0.02 0,-0.02 -0.01,-0.02 0,-0.01 0,-0.01 0,-0.01 0,-0.01 0,-0.01 0,-0.02 0,-0.01 0,-0.01 0,-0.01 c 0,-0.32 0.28,-0.59 0.66,-0.59 0.7,0 1.01,0.96 1.01,1.06 0,0.1 -0.09,0.1 -0.11,0.1 -0.1,0 -0.11,-0.05 -0.14,-0.12 -0.16,-0.56 -0.47,-0.84 -0.74,-0.84 -0.14,0 -0.17,0.09 -0.17,0.24 0,0.16 0.05,0.29 0.11,0.44 0.07,0.19 0.14,0.38 0.22,0.56 0.06,0.17 0.32,0.8 0.34,0.88 0.03,0.07 0.05,0.16 0.05,0.23 0,0.32 -0.28,0.59 -0.67,0.59 -0.69,0 -1.01,-0.95 -1.01,-1.07 0,-0.09 0.1,-0.09 0.12,-0.09 0.09,0 0.1,0.04 0.12,0.11 0.19,0.6 0.49,0.85 0.75,0.85 0.11,0 0.18,-0.05 0.18,-0.24 0,-0.16 -0.05,-0.27 -0.22,-0.7 z"
         id="path8247"
         inkscape:connector-curvature="0"
         style="fill:#000000;stroke-width:0" /></g>    <g
       style="font-style:normal;font-variant:normal;font-weight:normal;font-stretch:normal;letter-spacing:normal;word-spacing:normal;text-anchor:start;fill:none;fill-opacity:1;fill-rule:evenodd;stroke:#000000;stroke-linecap:butt;stroke-linejoin:miter;stroke-miterlimit:10.43299961;stroke-dasharray:none;stroke-dashoffset:0;stroke-opacity:1"
       ns0:preamble=""
       ns0:text="$t_{i+1}$"
       word-spacing="normal"
       letter-spacing="normal"
       font-size-adjust="none"
       font-stretch="normal"
       font-weight="normal"
       font-variant="normal"
       font-style="normal"
       stroke-miterlimit="10.433"
       xml:space="preserve"
       transform="matrix(3,0,0,-3,-192.50779,2947.0398)"
       id="g8428"><path
         id="path8430"
         d="m 225.49,661.21 0.93,0 c 0.2,0 0.3,0 0.3,0.2 0,0.11 -0.1,0.11 -0.28,0.11 l -0.87,0 c 0.36,1.41 0.41,1.61 0.41,1.66 0,0.17 -0.13,0.27 -0.29,0.27 -0.03,0 -0.31,-0.01 -0.4,-0.35 l -0.39,-1.58 -0.94,0 c -0.2,0 -0.3,0 -0.3,-0.19 0,-0.12 0.08,-0.12 0.28,-0.12 l 0.88,0 c -0.72,-2.82 -0.76,-2.99 -0.76,-3.17 0,-0.54 0.38,-0.91 0.92,-0.91 1.01,0 1.58,1.45 1.58,1.53 0,0.1 -0.08,0.1 -0.12,0.1 -0.09,0 -0.1,-0.04 -0.15,-0.14 -0.42,-1.04 -0.95,-1.28 -1.29,-1.28 -0.21,0 -0.31,0.13 -0.31,0.46 0,0.24 0.02,0.31 0.06,0.48 z"
         inkscape:connector-curvature="0"
         style="fill:#000000;stroke-width:0" /><path
         id="path8432"
         d="m 229.29,660.09 0,0.01 0,0.01 0,0.01 0,0.01 0,0.01 0,0.01 -0.01,0.01 0,0.02 -0.01,0.01 0,0.01 -0.01,0.01 0,0.01 -0.01,0.01 -0.01,0.01 0,0.01 -0.01,0.01 -0.01,0.01 -0.01,0.01 -0.01,0.01 -0.01,0.01 -0.01,0 -0.01,0.01 -0.02,0.01 -0.01,0.01 -0.01,0 -0.02,0.01 -0.01,0 -0.02,0 -0.01,0.01 -0.02,0 -0.02,0 -0.01,0 c -0.19,0 -0.4,-0.18 -0.4,-0.38 0,-0.12 0.09,-0.26 0.28,-0.26 0.21,0 0.39,0.19 0.39,0.38 z"
         inkscape:connector-curvature="0"
         style="fill:#000000;stroke-width:0" /><path
         id="path8434"
         d="m 227.87,656.55 -0.01,-0.01 0,-0.02 -0.01,-0.03 -0.01,-0.02 0,-0.02 -0.01,-0.01 0,-0.02 -0.01,-0.02 0,-0.02 -0.01,-0.02 0,-0.01 0,-0.01 0,-0.01 0,-0.01 0,-0.01 0,-0.02 0,-0.01 0,-0.01 0,-0.01 c 0,-0.32 0.28,-0.59 0.66,-0.59 0.7,0 1.01,0.96 1.01,1.06 0,0.1 -0.09,0.1 -0.11,0.1 -0.1,0 -0.11,-0.05 -0.14,-0.12 -0.16,-0.56 -0.47,-0.84 -0.74,-0.84 -0.14,0 -0.17,0.09 -0.17,0.24 0,0.16 0.05,0.29 0.11,0.44 0.07,0.19 0.14,0.38 0.22,0.56 0.06,0.17 0.32,0.8 0.34,0.88 0.03,0.07 0.05,0.16 0.05,0.23 0,0.32 -0.28,0.59 -0.67,0.59 -0.69,0 -1.01,-0.95 -1.01,-1.07 0,-0.09 0.1,-0.09 0.12,-0.09 0.09,0 0.1,0.04 0.12,0.11 0.19,0.6 0.49,0.85 0.75,0.85 0.11,0 0.18,-0.05 0.18,-0.24 0,-0.16 -0.05,-0.27 -0.22,-0.7 z"
         inkscape:connector-curvature="0"
         style="fill:#000000;stroke-width:0" /><path
         id="path8436"
         d="m 233.09,657.31 2.14,0 c 0.09,0 0.25,0 0.25,0.17 0,0.17 -0.16,0.17 -0.25,0.17 l -2.14,0 0,2.14 c 0,0.09 0,0.25 -0.17,0.25 -0.18,0 -0.18,-0.15 -0.18,-0.25 l 0,-2.14 -2.14,0 c -0.09,0 -0.26,0 -0.26,-0.16 0,-0.18 0.16,-0.18 0.26,-0.18 l 2.14,0 0,-2.13 c 0,-0.09 0,-0.26 0.17,-0.26 0.18,0 0.18,0.16 0.18,0.26 z"
         inkscape:connector-curvature="0"
         style="fill:#000000;stroke-width:0" /><path
         id="path8438"
         d="m 238.31,660.16 0,0.01 0,0.01 0,0.01 0,0.01 0,0 0,0.01 0,0.01 0,0.01 -0.01,0 0,0.01 0,0.01 0,0 0,0.01 0,0 0,0.01 0,0 0,0.01 0,0 0,0.01 -0.01,0.01 0,0.01 0,0 -0.01,0.01 0,0.01 -0.01,0 0,0.01 -0.01,0 0,0 -0.01,0.01 -0.01,0 -0.01,0 -0.01,0 0,0 -0.01,0 0,0 -0.01,0.01 -0.01,0 0,0 -0.01,0 0,0 -0.01,0 -0.01,0 -0.01,0 0,0 -0.01,0 -0.01,0 -0.01,0 -0.01,0 0,0 -0.01,0 c -0.45,-0.44 -1.09,-0.45 -1.37,-0.45 l 0,-0.25 c 0.16,0 0.62,0 1.01,0.2 l 0,-3.55 c 0,-0.23 0,-0.32 -0.7,-0.32 l -0.27,0 0,-0.25 c 0.13,0.01 0.99,0.03 1.25,0.03 0.22,0 1.1,-0.02 1.25,-0.03 l 0,0.25 -0.26,0 c -0.7,0 -0.7,0.09 -0.7,0.32 z"
         inkscape:connector-curvature="0"
         style="fill:#000000;stroke-width:0" /></g>    <g
       id="g8622"
       transform="matrix(3,0,0,-3,-587.15158,2487.3529)"
       xml:space="preserve"
       stroke-miterlimit="10.433"
       font-style="normal"
       font-variant="normal"
       font-weight="normal"
       font-stretch="normal"
       font-size-adjust="none"
       letter-spacing="normal"
       word-spacing="normal"
       ns0:text="$f(t_i)$"
       ns0:preamble=""
       style="font-style:normal;font-variant:normal;font-weight:normal;font-stretch:normal;letter-spacing:normal;word-spacing:normal;text-anchor:start;fill:none;fill-opacity:1;fill-rule:evenodd;stroke:#000000;stroke-linecap:butt;stroke-linejoin:miter;stroke-miterlimit:10.43299961;stroke-dasharray:none;stroke-dashoffset:0;stroke-opacity:1"><path
         d="m 227.09,661.21 0.86,0 c 0.2,0 0.3,0 0.3,0.2 0,0.11 -0.1,0.11 -0.27,0.11 l -0.83,0 0.21,1.13 c 0.04,0.21 0.18,0.91 0.24,1.03 0.09,0.19 0.26,0.34 0.47,0.34 0.04,0 0.3,0 0.49,-0.18 -0.44,-0.04 -0.54,-0.39 -0.54,-0.54 0,-0.22 0.18,-0.34 0.37,-0.34 0.26,0 0.55,0.21 0.55,0.59 0,0.46 -0.46,0.69 -0.87,0.69 -0.34,0 -0.97,-0.18 -1.27,-1.16 -0.06,-0.21 -0.09,-0.31 -0.33,-1.56 l -0.68,0 c -0.19,0 -0.3,0 -0.3,-0.19 0,-0.12 0.09,-0.12 0.27,-0.12 l 0.66,0 -0.74,-3.93 c -0.18,-0.96 -0.35,-1.86 -0.87,-1.86 -0.04,0 -0.29,0 -0.48,0.18 0.46,0.03 0.55,0.38 0.55,0.53 0,0.23 -0.18,0.35 -0.37,0.35 -0.26,0 -0.55,-0.22 -0.55,-0.6 0,-0.44 0.44,-0.68 0.85,-0.68 0.55,0 0.95,0.58 1.12,0.96 0.32,0.63 0.55,1.83 0.56,1.9 z"
         id="path8624"
         inkscape:connector-curvature="0"
         style="fill:#000000;stroke-width:0" /><path
         d="m 232.68,654.85 0,0.01 0,0 0,0 0,0.01 0,0 0,0 0,0.01 0,0 0,0 -0.01,0.01 0,0 0,0.01 0,0 -0.01,0.01 0,0 -0.01,0.01 0,0.01 -0.01,0 0,0.01 -0.01,0 0,0.01 0,0 -0.01,0 0,0.01 0,0 -0.01,0.01 0,0 -0.01,0.01 0,0 -0.01,0.01 0,0 -0.01,0.01 0,0.01 -0.01,0 -0.01,0.01 0,0.01 -0.01,0 -0.01,0.01 0,0.01 -0.01,0 -0.01,0.01 -0.01,0.01 c -1.24,1.25 -1.56,3.13 -1.56,4.65 0,1.73 0.38,3.45 1.6,4.7 0.13,0.12 0.13,0.14 0.13,0.17 0,0.07 -0.04,0.09 -0.1,0.09 -0.1,0 -0.99,-0.67 -1.58,-1.93 -0.51,-1.09 -0.63,-2.2 -0.63,-3.03 0,-0.78 0.11,-1.98 0.66,-3.1 0.6,-1.22 1.45,-1.87 1.55,-1.87 0.06,0 0.1,0.03 0.1,0.1 z"
         id="path8626"
         inkscape:connector-curvature="0"
         style="fill:#000000;stroke-width:0" /><path
         d="m 235.31,661.21 0.94,0 c 0.2,0 0.3,0 0.3,0.2 0,0.11 -0.1,0.11 -0.28,0.11 l -0.88,0 c 0.36,1.41 0.41,1.61 0.41,1.66 0,0.17 -0.12,0.27 -0.29,0.27 -0.03,0 -0.31,-0.01 -0.4,-0.35 l -0.39,-1.58 -0.93,0 c -0.2,0 -0.3,0 -0.3,-0.19 0,-0.12 0.08,-0.12 0.27,-0.12 l 0.88,0 c -0.72,-2.82 -0.76,-2.99 -0.76,-3.17 0,-0.54 0.38,-0.91 0.92,-0.91 1.02,0 1.59,1.45 1.59,1.53 0,0.1 -0.08,0.1 -0.12,0.1 -0.09,0 -0.1,-0.04 -0.15,-0.14 -0.43,-1.04 -0.96,-1.28 -1.3,-1.28 -0.21,0 -0.31,0.13 -0.31,0.46 0,0.24 0.02,0.31 0.06,0.48 z"
         id="path8628"
         inkscape:connector-curvature="0"
         style="fill:#000000;stroke-width:0" /><path
         d="m 239.12,660.09 0,0.01 0,0.01 0,0.01 0,0.01 -0.01,0.01 0,0.01 0,0.01 -0.01,0.02 0,0.01 -0.01,0.01 0,0.01 -0.01,0.01 0,0.01 -0.01,0.01 -0.01,0.01 -0.01,0.01 -0.01,0.01 -0.01,0.01 -0.01,0.01 -0.01,0.01 -0.01,0 -0.01,0.01 -0.01,0.01 -0.01,0.01 -0.02,0 -0.01,0.01 -0.02,0 -0.01,0 -0.02,0.01 -0.01,0 -0.02,0 -0.02,0 c -0.19,0 -0.39,-0.18 -0.39,-0.38 0,-0.12 0.09,-0.26 0.28,-0.26 0.2,0 0.39,0.19 0.39,0.38 z"
         id="path8630"
         inkscape:connector-curvature="0"
         style="fill:#000000;stroke-width:0" /><path
         d="m 237.69,656.55 0,-0.01 -0.01,-0.02 -0.01,-0.03 0,-0.02 -0.01,-0.02 0,-0.01 -0.01,-0.02 0,-0.02 -0.01,-0.02 0,-0.02 0,-0.01 -0.01,-0.01 0,-0.01 0,-0.01 0,-0.01 0,-0.02 0,-0.01 0,-0.01 0,-0.01 c 0,-0.32 0.28,-0.59 0.66,-0.59 0.7,0 1.01,0.96 1.01,1.06 0,0.1 -0.09,0.1 -0.11,0.1 -0.1,0 -0.11,-0.05 -0.13,-0.12 -0.16,-0.56 -0.47,-0.84 -0.74,-0.84 -0.14,0 -0.18,0.09 -0.18,0.24 0,0.16 0.05,0.29 0.11,0.44 0.07,0.19 0.15,0.38 0.23,0.56 0.06,0.17 0.31,0.8 0.34,0.88 0.02,0.07 0.04,0.16 0.04,0.23 0,0.32 -0.28,0.59 -0.66,0.59 -0.7,0 -1.02,-0.95 -1.02,-1.07 0,-0.09 0.1,-0.09 0.12,-0.09 0.1,0 0.11,0.04 0.13,0.11 0.18,0.6 0.49,0.85 0.75,0.85 0.11,0 0.17,-0.05 0.17,-0.24 0,-0.16 -0.04,-0.27 -0.22,-0.7 z"
         id="path8632"
         inkscape:connector-curvature="0"
         style="fill:#000000;stroke-width:0" /><path
         d="m 243.05,659.72 0,0.07 0,0.08 0,0.08 0,0.08 -0.01,0.17 -0.01,0.17 -0.02,0.18 -0.02,0.19 -0.03,0.2 -0.03,0.2 -0.04,0.2 -0.05,0.21 -0.05,0.21 -0.06,0.21 -0.07,0.21 -0.08,0.21 -0.04,0.11 -0.05,0.11 -0.04,0.1 -0.05,0.11 c -0.6,1.22 -1.46,1.86 -1.56,1.86 -0.06,0 -0.1,-0.03 -0.1,-0.09 0,-0.03 0,-0.05 0.19,-0.23 0.98,-0.99 1.55,-2.57 1.55,-4.64 0,-1.7 -0.37,-3.45 -1.61,-4.7 -0.13,-0.12 -0.13,-0.14 -0.13,-0.17 0,-0.06 0.04,-0.1 0.1,-0.1 0.1,0 1,0.68 1.59,1.94 0.5,1.09 0.62,2.19 0.62,3.03 z"
         id="path8634"
         inkscape:connector-curvature="0"
         style="fill:#000000;stroke-width:0" /></g>    <g
       style="font-style:normal;font-variant:normal;font-weight:normal;font-stretch:normal;letter-spacing:normal;word-spacing:normal;text-anchor:start;fill:none;fill-opacity:1;fill-rule:evenodd;stroke:#000000;stroke-linecap:butt;stroke-linejoin:miter;stroke-miterlimit:10.43299961;stroke-dasharray:none;stroke-dashoffset:0;stroke-opacity:1"
       ns0:preamble=""
       ns0:text="$f(t_i)-\\varepsilon^*$"
       word-spacing="normal"
       letter-spacing="normal"
       font-size-adjust="none"
       font-stretch="normal"
       font-weight="normal"
       font-variant="normal"
       font-style="normal"
       stroke-miterlimit="10.433"
       xml:space="preserve"
       transform="matrix(3,0,0,-3,-638.80661,2571.9551)"
       id="g8817"><path
         id="path8819"
         d="m 227.09,661.21 0.86,0 c 0.2,0 0.3,0 0.3,0.2 0,0.11 -0.1,0.11 -0.27,0.11 l -0.83,0 0.21,1.13 c 0.04,0.21 0.18,0.91 0.24,1.03 0.09,0.19 0.26,0.34 0.47,0.34 0.04,0 0.3,0 0.49,-0.18 -0.44,-0.04 -0.54,-0.39 -0.54,-0.54 0,-0.22 0.18,-0.34 0.37,-0.34 0.26,0 0.55,0.21 0.55,0.59 0,0.46 -0.46,0.69 -0.87,0.69 -0.34,0 -0.97,-0.18 -1.27,-1.16 -0.06,-0.21 -0.09,-0.31 -0.33,-1.56 l -0.68,0 c -0.19,0 -0.3,0 -0.3,-0.19 0,-0.12 0.09,-0.12 0.27,-0.12 l 0.66,0 -0.74,-3.93 c -0.18,-0.96 -0.35,-1.86 -0.87,-1.86 -0.04,0 -0.29,0 -0.48,0.18 0.46,0.03 0.55,0.38 0.55,0.53 0,0.23 -0.18,0.35 -0.37,0.35 -0.26,0 -0.55,-0.22 -0.55,-0.6 0,-0.44 0.44,-0.68 0.85,-0.68 0.55,0 0.95,0.58 1.12,0.96 0.32,0.63 0.55,1.83 0.56,1.9 z"
         inkscape:connector-curvature="0"
         style="fill:#000000;stroke-width:0" /><path
         id="path8821"
         d="m 232.68,654.85 0,0.01 0,0 0,0 0,0.01 0,0 0,0 0,0.01 0,0 0,0 -0.01,0.01 0,0 0,0.01 0,0 -0.01,0.01 0,0 -0.01,0.01 0,0.01 -0.01,0 0,0.01 -0.01,0 0,0.01 0,0 -0.01,0 0,0.01 0,0 -0.01,0.01 0,0 -0.01,0.01 0,0 -0.01,0.01 0,0 -0.01,0.01 0,0.01 -0.01,0 -0.01,0.01 0,0.01 -0.01,0 -0.01,0.01 0,0.01 -0.01,0 -0.01,0.01 -0.01,0.01 c -1.24,1.25 -1.56,3.13 -1.56,4.65 0,1.73 0.38,3.45 1.6,4.7 0.13,0.12 0.13,0.14 0.13,0.17 0,0.07 -0.04,0.09 -0.1,0.09 -0.1,0 -0.99,-0.67 -1.58,-1.93 -0.51,-1.09 -0.63,-2.2 -0.63,-3.03 0,-0.78 0.11,-1.98 0.66,-3.1 0.6,-1.22 1.45,-1.87 1.55,-1.87 0.06,0 0.1,0.03 0.1,0.1 z"
         inkscape:connector-curvature="0"
         style="fill:#000000;stroke-width:0" /><path
         id="path8823"
         d="m 235.31,661.21 0.94,0 c 0.2,0 0.3,0 0.3,0.2 0,0.11 -0.1,0.11 -0.28,0.11 l -0.88,0 c 0.36,1.41 0.41,1.61 0.41,1.66 0,0.17 -0.12,0.27 -0.29,0.27 -0.03,0 -0.31,-0.01 -0.4,-0.35 l -0.39,-1.58 -0.93,0 c -0.2,0 -0.3,0 -0.3,-0.19 0,-0.12 0.08,-0.12 0.27,-0.12 l 0.88,0 c -0.72,-2.82 -0.76,-2.99 -0.76,-3.17 0,-0.54 0.38,-0.91 0.92,-0.91 1.02,0 1.59,1.45 1.59,1.53 0,0.1 -0.08,0.1 -0.12,0.1 -0.09,0 -0.1,-0.04 -0.15,-0.14 -0.43,-1.04 -0.96,-1.28 -1.3,-1.28 -0.21,0 -0.31,0.13 -0.31,0.46 0,0.24 0.02,0.31 0.06,0.48 z"
         inkscape:connector-curvature="0"
         style="fill:#000000;stroke-width:0" /><path
         id="path8825"
         d="m 239.12,660.09 0,0.01 0,0.01 0,0.01 0,0.01 -0.01,0.01 0,0.01 0,0.01 -0.01,0.02 0,0.01 -0.01,0.01 0,0.01 -0.01,0.01 0,0.01 -0.01,0.01 -0.01,0.01 -0.01,0.01 -0.01,0.01 -0.01,0.01 -0.01,0.01 -0.01,0.01 -0.01,0 -0.01,0.01 -0.01,0.01 -0.01,0.01 -0.02,0 -0.01,0.01 -0.02,0 -0.01,0 -0.02,0.01 -0.01,0 -0.02,0 -0.02,0 c -0.19,0 -0.39,-0.18 -0.39,-0.38 0,-0.12 0.09,-0.26 0.28,-0.26 0.2,0 0.39,0.19 0.39,0.38 z"
         inkscape:connector-curvature="0"
         style="fill:#000000;stroke-width:0" /><path
         id="path8827"
         d="m 237.69,656.55 0,-0.01 -0.01,-0.02 -0.01,-0.03 0,-0.02 -0.01,-0.02 0,-0.01 -0.01,-0.02 0,-0.02 -0.01,-0.02 0,-0.02 0,-0.01 -0.01,-0.01 0,-0.01 0,-0.01 0,-0.01 0,-0.02 0,-0.01 0,-0.01 0,-0.01 c 0,-0.32 0.28,-0.59 0.66,-0.59 0.7,0 1.01,0.96 1.01,1.06 0,0.1 -0.09,0.1 -0.11,0.1 -0.1,0 -0.11,-0.05 -0.13,-0.12 -0.16,-0.56 -0.47,-0.84 -0.74,-0.84 -0.14,0 -0.18,0.09 -0.18,0.24 0,0.16 0.05,0.29 0.11,0.44 0.07,0.19 0.15,0.38 0.23,0.56 0.06,0.17 0.31,0.8 0.34,0.88 0.02,0.07 0.04,0.16 0.04,0.23 0,0.32 -0.28,0.59 -0.66,0.59 -0.7,0 -1.02,-0.95 -1.02,-1.07 0,-0.09 0.1,-0.09 0.12,-0.09 0.1,0 0.11,0.04 0.13,0.11 0.18,0.6 0.49,0.85 0.75,0.85 0.11,0 0.17,-0.05 0.17,-0.24 0,-0.16 -0.04,-0.27 -0.22,-0.7 z"
         inkscape:connector-curvature="0"
         style="fill:#000000;stroke-width:0" /><path
         id="path8829"
         d="m 243.05,659.72 0,0.07 0,0.08 0,0.08 0,0.08 -0.01,0.17 -0.01,0.17 -0.02,0.18 -0.02,0.19 -0.03,0.2 -0.03,0.2 -0.04,0.2 -0.05,0.21 -0.05,0.21 -0.06,0.21 -0.07,0.21 -0.08,0.21 -0.04,0.11 -0.05,0.11 -0.04,0.1 -0.05,0.11 c -0.6,1.22 -1.46,1.86 -1.56,1.86 -0.06,0 -0.1,-0.03 -0.1,-0.09 0,-0.03 0,-0.05 0.19,-0.23 0.98,-0.99 1.55,-2.57 1.55,-4.64 0,-1.7 -0.37,-3.45 -1.61,-4.7 -0.13,-0.12 -0.13,-0.14 -0.13,-0.17 0,-0.06 0.04,-0.1 0.1,-0.1 0.1,0 1,0.68 1.59,1.94 0.5,1.09 0.62,2.19 0.62,3.03 z"
         inkscape:connector-curvature="0"
         style="fill:#000000;stroke-width:0" /><path
         id="path8831"
         d="m 252.83,659.52 0.03,0 0.03,0 0.04,0 0.01,0 0.02,0 0.01,0 0.02,0.01 0.01,0 0.02,0 0.01,0 0.01,0.01 0.02,0 0.01,0 0.01,0.01 0.01,0.01 0.01,0 0.01,0.01 0.01,0.01 0.01,0 0.01,0.01 0.01,0.01 0,0.01 0.01,0 0,0.01 0,0.01 0.01,0 0,0.01 0,0.01 0,0 0,0.01 0.01,0.01 0,0.01 0,0 0,0.01 0,0.01 0,0.01 0,0.01 c 0,0.2 -0.18,0.2 -0.35,0.2 l -5.39,0 c -0.17,0 -0.35,0 -0.35,-0.2 0,-0.2 0.18,-0.2 0.35,-0.2 z"
         inkscape:connector-curvature="0"
         style="fill:#000000;stroke-width:0" /><path
         id="path8833"
         d="m 257.63,659.49 0.03,-0.01 0.03,-0.01 0.03,-0.02 0.03,-0.01 0.03,-0.01 0.03,0 0.03,-0.01 0.03,-0.01 0.03,-0.01 0.02,0 0.06,-0.02 0.06,0 0.05,-0.01 0.05,-0.01 0.06,0 0.05,0 0.05,-0.01 0.05,0 0.04,0 0.05,0 0.05,0 0,0.22 c -0.22,0 -0.34,0 -0.53,0.05 l 0,0 c 0.23,0.08 0.44,0.09 0.61,0.09 0.25,0 0.29,-0.01 0.46,-0.06 -0.14,-0.07 -0.17,-0.08 -0.54,-0.08 l 0,-0.22 c 0.25,0 0.8,0 0.8,0.31 0,0.24 -0.35,0.27 -0.72,0.27 -0.21,0 -0.56,-0.02 -0.93,-0.19 -0.23,0.12 -0.4,0.31 -0.4,0.57 0,0.61 0.98,0.97 1.87,0.97 0.16,0 0.52,0 0.92,-0.28 0.11,-0.08 0.13,-0.1 0.2,-0.1 0.13,0 0.27,0.13 0.27,0.27 0,0.19 -0.61,0.56 -1.29,0.56 -1.14,0 -2.22,-0.66 -2.22,-1.42 0,-0.42 0.36,-0.67 0.4,-0.7 -0.59,-0.33 -0.91,-0.89 -0.91,-1.34 0,-0.65 0.57,-1.25 1.63,-1.25 1.31,0 1.87,0.87 1.87,1.02 0,0.06 -0.05,0.1 -0.11,0.1 -0.05,0 -0.08,-0.04 -0.1,-0.07 -0.14,-0.23 -0.38,-0.6 -1.57,-0.6 -0.61,0 -1.46,0.15 -1.46,0.86 0,0.33 0.28,0.86 0.89,1.16 z"
         inkscape:connector-curvature="0"
         style="fill:#000000;stroke-width:0" /><path
         id="path8835"
         d="m 263.12,662.58 0.06,0.03 0.05,0.02 0.05,0.02 0.05,0.02 0.04,0.02 0.05,0.02 0.04,0.02 0.04,0.01 0.04,0.02 0.04,0.02 0.03,0.01 0.04,0.02 0.03,0.01 0.04,0.01 0.03,0.02 0.03,0.01 0.03,0.01 0.03,0.01 0.02,0.02 0.03,0.01 0.02,0.01 0.03,0.01 0.02,0.01 0.02,0.01 0.02,0.01 0.02,0 0.04,0.02 0.04,0.02 0.03,0.01 c 0.14,0.06 0.2,0.09 0.2,0.22 0,0.12 -0.09,0.22 -0.22,0.22 -0.05,0 -0.06,0 -0.15,-0.06 l -0.95,-0.63 0.11,1.03 c 0.01,0.12 0,0.29 -0.21,0.29 -0.08,0 -0.22,-0.05 -0.22,-0.2 0,-0.07 0.03,-0.28 0.04,-0.35 0.01,-0.11 0.06,-0.61 0.07,-0.77 l -0.94,0.63 c -0.07,0.04 -0.09,0.06 -0.15,0.06 -0.13,0 -0.22,-0.1 -0.22,-0.22 0,-0.14 0.08,-0.18 0.15,-0.2 l 1.05,-0.44 c -0.57,-0.25 -0.83,-0.35 -1.01,-0.43 -0.13,-0.06 -0.19,-0.08 -0.19,-0.22 0,-0.12 0.09,-0.22 0.22,-0.22 0.05,0 0.06,0 0.14,0.06 l 0.95,0.64 -0.11,-1.12 c 0,-0.16 0.14,-0.21 0.22,-0.21 0.08,0 0.21,0.05 0.21,0.21 0,0.06 -0.02,0.27 -0.03,0.34 -0.01,0.12 -0.06,0.62 -0.08,0.78 l 0.84,-0.56 c 0.18,-0.14 0.2,-0.14 0.26,-0.14 0.13,0 0.22,0.1 0.22,0.22 0,0.14 -0.09,0.18 -0.15,0.2 z"
         inkscape:connector-curvature="0"
         style="fill:#000000;stroke-width:0" /></g>    <g
       id="g9020"
       transform="matrix(3,0,0,-3,-667.33564,2616.8614)"
       xml:space="preserve"
       stroke-miterlimit="10.433"
       font-style="normal"
       font-variant="normal"
       font-weight="normal"
       font-stretch="normal"
       font-size-adjust="none"
       letter-spacing="normal"
       word-spacing="normal"
       ns0:text="$f(t_{i+1})+\\varepsilon^*$"
       ns0:preamble=""
       style="font-style:normal;font-variant:normal;font-weight:normal;font-stretch:normal;letter-spacing:normal;word-spacing:normal;text-anchor:start;fill:none;fill-opacity:1;fill-rule:evenodd;stroke:#000000;stroke-linecap:butt;stroke-linejoin:miter;stroke-miterlimit:10.43299961;stroke-dasharray:none;stroke-dashoffset:0;stroke-opacity:1"><path
         d="m 227.09,661.21 0.86,0 c 0.2,0 0.3,0 0.3,0.2 0,0.11 -0.1,0.11 -0.27,0.11 l -0.83,0 0.21,1.13 c 0.04,0.21 0.18,0.91 0.24,1.03 0.09,0.19 0.26,0.34 0.47,0.34 0.04,0 0.3,0 0.49,-0.18 -0.44,-0.04 -0.54,-0.39 -0.54,-0.54 0,-0.22 0.18,-0.34 0.37,-0.34 0.26,0 0.55,0.21 0.55,0.59 0,0.46 -0.46,0.69 -0.87,0.69 -0.34,0 -0.97,-0.18 -1.27,-1.16 -0.06,-0.21 -0.09,-0.31 -0.33,-1.56 l -0.68,0 c -0.19,0 -0.3,0 -0.3,-0.19 0,-0.12 0.09,-0.12 0.27,-0.12 l 0.66,0 -0.74,-3.93 c -0.18,-0.96 -0.35,-1.86 -0.87,-1.86 -0.04,0 -0.29,0 -0.48,0.18 0.46,0.03 0.55,0.38 0.55,0.53 0,0.23 -0.18,0.35 -0.37,0.35 -0.26,0 -0.55,-0.22 -0.55,-0.6 0,-0.44 0.44,-0.68 0.85,-0.68 0.55,0 0.95,0.58 1.12,0.96 0.32,0.63 0.55,1.83 0.56,1.9 z"
         id="path9022"
         inkscape:connector-curvature="0"
         style="fill:#000000;stroke-width:0" /><path
         d="m 232.68,654.85 0,0.01 0,0 0,0 0,0.01 0,0 0,0 0,0.01 0,0 0,0 -0.01,0.01 0,0 0,0.01 0,0 -0.01,0.01 0,0 -0.01,0.01 0,0.01 -0.01,0 0,0.01 -0.01,0 0,0.01 0,0 -0.01,0 0,0.01 0,0 -0.01,0.01 0,0 -0.01,0.01 0,0 -0.01,0.01 0,0 -0.01,0.01 0,0.01 -0.01,0 -0.01,0.01 0,0.01 -0.01,0 -0.01,0.01 0,0.01 -0.01,0 -0.01,0.01 -0.01,0.01 c -1.24,1.25 -1.56,3.13 -1.56,4.65 0,1.73 0.38,3.45 1.6,4.7 0.13,0.12 0.13,0.14 0.13,0.17 0,0.07 -0.04,0.09 -0.1,0.09 -0.1,0 -0.99,-0.67 -1.58,-1.93 -0.51,-1.09 -0.63,-2.2 -0.63,-3.03 0,-0.78 0.11,-1.98 0.66,-3.1 0.6,-1.22 1.45,-1.87 1.55,-1.87 0.06,0 0.1,0.03 0.1,0.1 z"
         id="path9024"
         inkscape:connector-curvature="0"
         style="fill:#000000;stroke-width:0" /><path
         d="m 235.31,661.21 0.94,0 c 0.2,0 0.3,0 0.3,0.2 0,0.11 -0.1,0.11 -0.28,0.11 l -0.88,0 c 0.36,1.41 0.41,1.61 0.41,1.66 0,0.17 -0.12,0.27 -0.29,0.27 -0.03,0 -0.31,-0.01 -0.4,-0.35 l -0.39,-1.58 -0.93,0 c -0.2,0 -0.3,0 -0.3,-0.19 0,-0.12 0.08,-0.12 0.27,-0.12 l 0.88,0 c -0.72,-2.82 -0.76,-2.99 -0.76,-3.17 0,-0.54 0.38,-0.91 0.92,-0.91 1.02,0 1.59,1.45 1.59,1.53 0,0.1 -0.08,0.1 -0.12,0.1 -0.09,0 -0.1,-0.04 -0.15,-0.14 -0.43,-1.04 -0.96,-1.28 -1.3,-1.28 -0.21,0 -0.31,0.13 -0.31,0.46 0,0.24 0.02,0.31 0.06,0.48 z"
         id="path9026"
         inkscape:connector-curvature="0"
         style="fill:#000000;stroke-width:0" /><path
         d="m 239.12,660.09 0,0.01 0,0.01 0,0.01 0,0.01 -0.01,0.01 0,0.01 0,0.01 -0.01,0.02 0,0.01 -0.01,0.01 0,0.01 -0.01,0.01 0,0.01 -0.01,0.01 -0.01,0.01 -0.01,0.01 -0.01,0.01 -0.01,0.01 -0.01,0.01 -0.01,0.01 -0.01,0 -0.01,0.01 -0.01,0.01 -0.01,0.01 -0.02,0 -0.01,0.01 -0.02,0 -0.01,0 -0.02,0.01 -0.01,0 -0.02,0 -0.02,0 c -0.19,0 -0.39,-0.18 -0.39,-0.38 0,-0.12 0.09,-0.26 0.28,-0.26 0.2,0 0.39,0.19 0.39,0.38 z"
         id="path9028"
         inkscape:connector-curvature="0"
         style="fill:#000000;stroke-width:0" /><path
         d="m 237.69,656.55 0,-0.01 -0.01,-0.02 -0.01,-0.03 0,-0.02 -0.01,-0.02 0,-0.01 -0.01,-0.02 0,-0.02 -0.01,-0.02 0,-0.02 0,-0.01 -0.01,-0.01 0,-0.01 0,-0.01 0,-0.01 0,-0.02 0,-0.01 0,-0.01 0,-0.01 c 0,-0.32 0.28,-0.59 0.66,-0.59 0.7,0 1.01,0.96 1.01,1.06 0,0.1 -0.09,0.1 -0.11,0.1 -0.1,0 -0.11,-0.05 -0.13,-0.12 -0.16,-0.56 -0.47,-0.84 -0.74,-0.84 -0.14,0 -0.18,0.09 -0.18,0.24 0,0.16 0.05,0.29 0.11,0.44 0.07,0.19 0.15,0.38 0.23,0.56 0.06,0.17 0.31,0.8 0.34,0.88 0.02,0.07 0.04,0.16 0.04,0.23 0,0.32 -0.28,0.59 -0.66,0.59 -0.7,0 -1.02,-0.95 -1.02,-1.07 0,-0.09 0.1,-0.09 0.12,-0.09 0.1,0 0.11,0.04 0.13,0.11 0.18,0.6 0.49,0.85 0.75,0.85 0.11,0 0.17,-0.05 0.17,-0.24 0,-0.16 -0.04,-0.27 -0.22,-0.7 z"
         id="path9030"
         inkscape:connector-curvature="0"
         style="fill:#000000;stroke-width:0" /><path
         d="m 242.91,657.31 2.14,0 c 0.09,0 0.26,0 0.26,0.17 0,0.17 -0.16,0.17 -0.26,0.17 l -2.14,0 0,2.14 c 0,0.09 0,0.25 -0.17,0.25 -0.17,0 -0.17,-0.15 -0.17,-0.25 l 0,-2.14 -2.15,0 c -0.09,0 -0.26,0 -0.26,-0.16 0,-0.18 0.16,-0.18 0.26,-0.18 l 2.15,0 0,-2.13 c 0,-0.09 0,-0.26 0.17,-0.26 0.17,0 0.17,0.16 0.17,0.26 z"
         id="path9032"
         inkscape:connector-curvature="0"
         style="fill:#000000;stroke-width:0" /><path
         d="m 248.13,660.16 0,0.01 0,0.01 0,0.01 0,0.01 0,0 0,0.01 0,0.01 0,0.01 0,0 0,0.01 0,0.01 0,0 0,0.01 0,0 0,0.01 0,0 -0.01,0.01 0,0 0,0.01 0,0.01 0,0.01 -0.01,0 0,0.01 -0.01,0.01 0,0 -0.01,0.01 0,0 -0.01,0 -0.01,0.01 0,0 -0.01,0 -0.01,0 -0.01,0 0,0 -0.01,0 0,0.01 -0.01,0 -0.01,0 0,0 -0.01,0 -0.01,0 0,0 -0.01,0 -0.01,0 -0.01,0 0,0 -0.01,0 -0.01,0 -0.01,0 -0.01,0 c -0.45,-0.44 -1.08,-0.45 -1.37,-0.45 l 0,-0.25 c 0.17,0 0.63,0 1.02,0.2 l 0,-3.55 c 0,-0.23 0,-0.32 -0.7,-0.32 l -0.27,0 0,-0.25 c 0.13,0.01 0.99,0.03 1.25,0.03 0.21,0 1.09,-0.02 1.25,-0.03 l 0,0.25 -0.27,0 c -0.7,0 -0.7,0.09 -0.7,0.32 z"
         id="path9034"
         inkscape:connector-curvature="0"
         style="fill:#000000;stroke-width:0" /><path
         d="m 253.14,659.72 0,0.07 0,0.08 0,0.08 -0.01,0.08 0,0.17 -0.02,0.17 -0.01,0.18 -0.02,0.19 -0.03,0.2 -0.03,0.2 -0.04,0.2 -0.05,0.21 -0.05,0.21 -0.06,0.21 -0.07,0.21 -0.08,0.21 -0.05,0.11 -0.04,0.11 -0.05,0.1 -0.05,0.11 c -0.6,1.22 -1.45,1.86 -1.55,1.86 -0.06,0 -0.1,-0.03 -0.1,-0.09 0,-0.03 0,-0.05 0.19,-0.23 0.97,-0.99 1.54,-2.57 1.54,-4.64 0,-1.7 -0.37,-3.45 -1.6,-4.7 -0.13,-0.12 -0.13,-0.14 -0.13,-0.17 0,-0.06 0.04,-0.1 0.1,-0.1 0.1,0 0.99,0.68 1.58,1.94 0.51,1.09 0.63,2.19 0.63,3.03 z"
         id="path9036"
         inkscape:connector-curvature="0"
         style="fill:#000000;stroke-width:0" /><path
         d="m 260.42,659.52 2.78,0 c 0.15,0 0.33,0 0.33,0.2 0,0.2 -0.18,0.2 -0.33,0.2 l -2.78,0 0,2.78 c 0,0.14 0,0.33 -0.2,0.33 -0.2,0 -0.2,-0.19 -0.2,-0.33 l 0,-2.78 -2.79,0 c -0.14,0 -0.33,0 -0.33,-0.2 0,-0.2 0.19,-0.2 0.33,-0.2 l 2.79,0 0,-2.78 c 0,-0.14 0,-0.33 0.2,-0.33 0.2,0 0.2,0.19 0.2,0.33 z"
         id="path9038"
         inkscape:connector-curvature="0"
         style="fill:#000000;stroke-width:0" /><path
         d="m 267.71,659.49 0.04,-0.01 0.03,-0.01 0.03,-0.02 0.03,-0.01 0.03,-0.01 0.03,0 0.03,-0.01 0.02,-0.01 0.03,-0.01 0.03,0 0.06,-0.02 0.05,0 0.06,-0.01 0.05,-0.01 0.05,0 0.05,0 0.05,-0.01 0.05,0 0.05,0 0.05,0 0.04,0 0,0.22 c -0.22,0 -0.34,0 -0.53,0.05 l 0,0 c 0.23,0.08 0.44,0.09 0.61,0.09 0.25,0 0.29,-0.01 0.47,-0.06 -0.15,-0.07 -0.17,-0.08 -0.55,-0.08 l 0,-0.22 c 0.26,0 0.81,0 0.81,0.31 0,0.24 -0.35,0.27 -0.73,0.27 -0.21,0 -0.56,-0.02 -0.92,-0.19 -0.23,0.12 -0.4,0.31 -0.4,0.57 0,0.61 0.97,0.97 1.87,0.97 0.16,0 0.52,0 0.92,-0.28 0.11,-0.08 0.13,-0.1 0.2,-0.1 0.13,0 0.27,0.13 0.27,0.27 0,0.19 -0.61,0.56 -1.29,0.56 -1.15,0 -2.22,-0.66 -2.22,-1.42 0,-0.42 0.36,-0.67 0.4,-0.7 -0.59,-0.33 -0.91,-0.89 -0.91,-1.34 0,-0.65 0.57,-1.25 1.62,-1.25 1.32,0 1.88,0.87 1.88,1.02 0,0.06 -0.05,0.1 -0.11,0.1 -0.05,0 -0.08,-0.04 -0.1,-0.07 -0.14,-0.23 -0.38,-0.6 -1.58,-0.6 -0.61,0 -1.45,0.15 -1.45,0.86 0,0.33 0.28,0.86 0.88,1.16 z"
         id="path9040"
         inkscape:connector-curvature="0"
         style="fill:#000000;stroke-width:0" /><path
         d="m 273.21,662.58 0.06,0.03 0.05,0.02 0.05,0.02 0.04,0.02 0.05,0.02 0.04,0.02 0.05,0.02 0.04,0.01 0.04,0.02 0.04,0.02 0.03,0.01 0.04,0.02 0.03,0.01 0.03,0.01 0.04,0.02 0.03,0.01 0.03,0.01 0.02,0.01 0.03,0.02 0.03,0.01 0.02,0.01 0.02,0.01 0.03,0.01 0.02,0.01 0.02,0.01 0.02,0 0.04,0.02 0.04,0.02 0.03,0.01 c 0.13,0.06 0.2,0.09 0.2,0.22 0,0.12 -0.09,0.22 -0.22,0.22 -0.05,0 -0.06,0 -0.15,-0.06 l -0.95,-0.63 0.11,1.03 c 0.01,0.12 0,0.29 -0.21,0.29 -0.09,0 -0.22,-0.05 -0.22,-0.2 0,-0.07 0.03,-0.28 0.04,-0.35 0.01,-0.11 0.06,-0.61 0.07,-0.77 l -0.94,0.63 c -0.07,0.04 -0.09,0.06 -0.16,0.06 -0.12,0 -0.21,-0.1 -0.21,-0.22 0,-0.14 0.08,-0.18 0.14,-0.2 l 1.06,-0.44 c -0.57,-0.25 -0.83,-0.35 -1.01,-0.43 -0.13,-0.06 -0.19,-0.08 -0.19,-0.22 0,-0.12 0.09,-0.22 0.21,-0.22 0.05,0 0.07,0 0.15,0.06 l 0.95,0.64 -0.11,-1.12 c 0,-0.16 0.13,-0.21 0.22,-0.21 0.08,0 0.21,0.05 0.21,0.21 0,0.06 -0.03,0.27 -0.03,0.34 -0.02,0.12 -0.06,0.62 -0.08,0.78 l 0.84,-0.56 c 0.18,-0.14 0.2,-0.14 0.26,-0.14 0.13,0 0.22,0.1 0.22,0.22 0,0.14 -0.09,0.18 -0.15,0.2 z"
         id="path9042"
         inkscape:connector-curvature="0"
         style="fill:#000000;stroke-width:0" /></g>    <g
       style="font-style:normal;font-variant:normal;font-weight:normal;font-stretch:normal;letter-spacing:normal;word-spacing:normal;text-anchor:start;fill:none;fill-opacity:1;fill-rule:evenodd;stroke:#000000;stroke-linecap:butt;stroke-linejoin:miter;stroke-miterlimit:10.43299961;stroke-dasharray:none;stroke-dashoffset:0;stroke-opacity:1"
       ns0:preamble=""
       ns0:text="$f(t_{i+1})$"
       word-spacing="normal"
       letter-spacing="normal"
       font-size-adjust="none"
       font-stretch="normal"
       font-weight="normal"
       font-variant="normal"
       font-style="normal"
       stroke-miterlimit="10.433"
       xml:space="preserve"
       transform="matrix(3,0,0,-3,-617.39662,2707.3303)"
       id="g9236"><path
         id="path9238"
         d="m 227.09,661.21 0.86,0 c 0.2,0 0.3,0 0.3,0.2 0,0.11 -0.1,0.11 -0.27,0.11 l -0.83,0 0.21,1.13 c 0.04,0.21 0.18,0.91 0.24,1.03 0.09,0.19 0.26,0.34 0.47,0.34 0.04,0 0.3,0 0.49,-0.18 -0.44,-0.04 -0.54,-0.39 -0.54,-0.54 0,-0.22 0.18,-0.34 0.37,-0.34 0.26,0 0.55,0.21 0.55,0.59 0,0.46 -0.46,0.69 -0.87,0.69 -0.34,0 -0.97,-0.18 -1.27,-1.16 -0.06,-0.21 -0.09,-0.31 -0.33,-1.56 l -0.68,0 c -0.19,0 -0.3,0 -0.3,-0.19 0,-0.12 0.09,-0.12 0.27,-0.12 l 0.66,0 -0.74,-3.93 c -0.18,-0.96 -0.35,-1.86 -0.87,-1.86 -0.04,0 -0.29,0 -0.48,0.18 0.46,0.03 0.55,0.38 0.55,0.53 0,0.23 -0.18,0.35 -0.37,0.35 -0.26,0 -0.55,-0.22 -0.55,-0.6 0,-0.44 0.44,-0.68 0.85,-0.68 0.55,0 0.95,0.58 1.12,0.96 0.32,0.63 0.55,1.83 0.56,1.9 z"
         inkscape:connector-curvature="0"
         style="fill:#000000;stroke-width:0" /><path
         id="path9240"
         d="m 232.68,654.85 0,0.01 0,0 0,0 0,0.01 0,0 0,0 0,0.01 0,0 0,0 -0.01,0.01 0,0 0,0.01 0,0 -0.01,0.01 0,0 -0.01,0.01 0,0.01 -0.01,0 0,0.01 -0.01,0 0,0.01 0,0 -0.01,0 0,0.01 0,0 -0.01,0.01 0,0 -0.01,0.01 0,0 -0.01,0.01 0,0 -0.01,0.01 0,0.01 -0.01,0 -0.01,0.01 0,0.01 -0.01,0 -0.01,0.01 0,0.01 -0.01,0 -0.01,0.01 -0.01,0.01 c -1.24,1.25 -1.56,3.13 -1.56,4.65 0,1.73 0.38,3.45 1.6,4.7 0.13,0.12 0.13,0.14 0.13,0.17 0,0.07 -0.04,0.09 -0.1,0.09 -0.1,0 -0.99,-0.67 -1.58,-1.93 -0.51,-1.09 -0.63,-2.2 -0.63,-3.03 0,-0.78 0.11,-1.98 0.66,-3.1 0.6,-1.22 1.45,-1.87 1.55,-1.87 0.06,0 0.1,0.03 0.1,0.1 z"
         inkscape:connector-curvature="0"
         style="fill:#000000;stroke-width:0" /><path
         id="path9242"
         d="m 235.31,661.21 0.94,0 c 0.2,0 0.3,0 0.3,0.2 0,0.11 -0.1,0.11 -0.28,0.11 l -0.88,0 c 0.36,1.41 0.41,1.61 0.41,1.66 0,0.17 -0.12,0.27 -0.29,0.27 -0.03,0 -0.31,-0.01 -0.4,-0.35 l -0.39,-1.58 -0.93,0 c -0.2,0 -0.3,0 -0.3,-0.19 0,-0.12 0.08,-0.12 0.27,-0.12 l 0.88,0 c -0.72,-2.82 -0.76,-2.99 -0.76,-3.17 0,-0.54 0.38,-0.91 0.92,-0.91 1.02,0 1.59,1.45 1.59,1.53 0,0.1 -0.08,0.1 -0.12,0.1 -0.09,0 -0.1,-0.04 -0.15,-0.14 -0.43,-1.04 -0.96,-1.28 -1.3,-1.28 -0.21,0 -0.31,0.13 -0.31,0.46 0,0.24 0.02,0.31 0.06,0.48 z"
         inkscape:connector-curvature="0"
         style="fill:#000000;stroke-width:0" /><path
         id="path9244"
         d="m 239.12,660.09 0,0.01 0,0.01 0,0.01 0,0.01 -0.01,0.01 0,0.01 0,0.01 -0.01,0.02 0,0.01 -0.01,0.01 0,0.01 -0.01,0.01 0,0.01 -0.01,0.01 -0.01,0.01 -0.01,0.01 -0.01,0.01 -0.01,0.01 -0.01,0.01 -0.01,0.01 -0.01,0 -0.01,0.01 -0.01,0.01 -0.01,0.01 -0.02,0 -0.01,0.01 -0.02,0 -0.01,0 -0.02,0.01 -0.01,0 -0.02,0 -0.02,0 c -0.19,0 -0.39,-0.18 -0.39,-0.38 0,-0.12 0.09,-0.26 0.28,-0.26 0.2,0 0.39,0.19 0.39,0.38 z"
         inkscape:connector-curvature="0"
         style="fill:#000000;stroke-width:0" /><path
         id="path9246"
         d="m 237.69,656.55 0,-0.01 -0.01,-0.02 -0.01,-0.03 0,-0.02 -0.01,-0.02 0,-0.01 -0.01,-0.02 0,-0.02 -0.01,-0.02 0,-0.02 0,-0.01 -0.01,-0.01 0,-0.01 0,-0.01 0,-0.01 0,-0.02 0,-0.01 0,-0.01 0,-0.01 c 0,-0.32 0.28,-0.59 0.66,-0.59 0.7,0 1.01,0.96 1.01,1.06 0,0.1 -0.09,0.1 -0.11,0.1 -0.1,0 -0.11,-0.05 -0.13,-0.12 -0.16,-0.56 -0.47,-0.84 -0.74,-0.84 -0.14,0 -0.18,0.09 -0.18,0.24 0,0.16 0.05,0.29 0.11,0.44 0.07,0.19 0.15,0.38 0.23,0.56 0.06,0.17 0.31,0.8 0.34,0.88 0.02,0.07 0.04,0.16 0.04,0.23 0,0.32 -0.28,0.59 -0.66,0.59 -0.7,0 -1.02,-0.95 -1.02,-1.07 0,-0.09 0.1,-0.09 0.12,-0.09 0.1,0 0.11,0.04 0.13,0.11 0.18,0.6 0.49,0.85 0.75,0.85 0.11,0 0.17,-0.05 0.17,-0.24 0,-0.16 -0.04,-0.27 -0.22,-0.7 z"
         inkscape:connector-curvature="0"
         style="fill:#000000;stroke-width:0" /><path
         id="path9248"
         d="m 242.91,657.31 2.14,0 c 0.09,0 0.26,0 0.26,0.17 0,0.17 -0.16,0.17 -0.26,0.17 l -2.14,0 0,2.14 c 0,0.09 0,0.25 -0.17,0.25 -0.17,0 -0.17,-0.15 -0.17,-0.25 l 0,-2.14 -2.15,0 c -0.09,0 -0.26,0 -0.26,-0.16 0,-0.18 0.16,-0.18 0.26,-0.18 l 2.15,0 0,-2.13 c 0,-0.09 0,-0.26 0.17,-0.26 0.17,0 0.17,0.16 0.17,0.26 z"
         inkscape:connector-curvature="0"
         style="fill:#000000;stroke-width:0" /><path
         id="path9250"
         d="m 248.13,660.16 0,0.01 0,0.01 0,0.01 0,0.01 0,0 0,0.01 0,0.01 0,0.01 0,0 0,0.01 0,0.01 0,0 0,0.01 0,0 0,0.01 0,0 -0.01,0.01 0,0 0,0.01 0,0.01 0,0.01 -0.01,0 0,0.01 -0.01,0.01 0,0 -0.01,0.01 0,0 -0.01,0 -0.01,0.01 0,0 -0.01,0 -0.01,0 -0.01,0 0,0 -0.01,0 0,0.01 -0.01,0 -0.01,0 0,0 -0.01,0 -0.01,0 0,0 -0.01,0 -0.01,0 -0.01,0 0,0 -0.01,0 -0.01,0 -0.01,0 -0.01,0 c -0.45,-0.44 -1.08,-0.45 -1.37,-0.45 l 0,-0.25 c 0.17,0 0.63,0 1.02,0.2 l 0,-3.55 c 0,-0.23 0,-0.32 -0.7,-0.32 l -0.27,0 0,-0.25 c 0.13,0.01 0.99,0.03 1.25,0.03 0.21,0 1.09,-0.02 1.25,-0.03 l 0,0.25 -0.27,0 c -0.7,0 -0.7,0.09 -0.7,0.32 z"
         inkscape:connector-curvature="0"
         style="fill:#000000;stroke-width:0" /><path
         id="path9252"
         d="m 253.14,659.72 0,0.07 0,0.08 0,0.08 -0.01,0.08 0,0.17 -0.02,0.17 -0.01,0.18 -0.02,0.19 -0.03,0.2 -0.03,0.2 -0.04,0.2 -0.05,0.21 -0.05,0.21 -0.06,0.21 -0.07,0.21 -0.08,0.21 -0.05,0.11 -0.04,0.11 -0.05,0.1 -0.05,0.11 c -0.6,1.22 -1.45,1.86 -1.55,1.86 -0.06,0 -0.1,-0.03 -0.1,-0.09 0,-0.03 0,-0.05 0.19,-0.23 0.97,-0.99 1.54,-2.57 1.54,-4.64 0,-1.7 -0.37,-3.45 -1.6,-4.7 -0.13,-0.12 -0.13,-0.14 -0.13,-0.17 0,-0.06 0.04,-0.1 0.1,-0.1 0.1,0 0.99,0.68 1.58,1.94 0.51,1.09 0.63,2.19 0.63,3.03 z"
         inkscape:connector-curvature="0"
         style="fill:#000000;stroke-width:0" /></g>    <g
       id="g8265"
       transform="matrix(3,0,0,-3,-33.779704,2969.6844)"
       xml:space="preserve"
       stroke="black"
       stroke-linecap="butt"
       stroke-linejoin="miter"
       stroke-miterlimit="10.433"
       stroke-dasharray="none"
       stroke-dashoffset="0"
       stroke-opacity="1"
       fill="none"
       fill-rule="evenodd"
       fill-opacity="1"
       font-style="normal"
       font-variant="normal"
       font-weight="normal"
       font-stretch="normal"
       font-size-adjust="none"
       letter-spacing="normal"
       word-spacing="normal"
       text-anchor="start"
       ns0:text="$\\varphi(t_{i+1})$"
       ns0:preamble=""
       style="font-style:normal;font-variant:normal;font-weight:normal;font-stretch:normal;letter-spacing:normal;word-spacing:normal;text-anchor:start;fill:none;fill-opacity:1;fill-rule:evenodd;stroke:#000000;stroke-linecap:butt;stroke-linejoin:miter;stroke-miterlimit:10.43299961;stroke-dasharray:none;stroke-dashoffset:0;stroke-opacity:1"><path
         d="M225.13,655.55 L225.13,655.54 L225.12,655.53 L225.12,655.53 L225.12,655.52 L225.12,655.51 L225.11,655.5 L225.11,655.49 L225.11,655.48 L225.1,655.48 L225.1,655.47 L225.1,655.46 L225.1,655.45 L225.1,655.45 L225.09,655.44 L225.09,655.43 L225.09,655.43 L225.09,655.42 L225.09,655.42 L225.09,655.41 L225.08,655.41 L225.08,655.4 L225.08,655.4 L225.08,655.39 L225.08,655.39 L225.08,655.38 L225.08,655.37 L225.08,655.37 L225.08,655.36 L225.08,655.35 L225.08,655.35 C225.08,655.13,225.27,655.07,225.37,655.07 C225.42,655.07,225.64,655.1,225.74,655.33 C225.76,655.41,225.82,655.73,226.09,657.15 C226.17,657.14,226.24,657.13,226.41,657.13 C228.07,657.13,229.6,658.68,229.6,660.26 L229.32,660.04 C229.32,658.91,228.04,657.7,226.5,657.7 H226.5 C226.42,657.7,226.4,657.7,226.32,657.71 C226.2,657.71,226.19,657.72,226.19,657.75 C226.19,657.77,226.36,658.67,226.39,658.82 C226.7,660.1,227.48,661.05,228.37,661.05 C229.06,661.05,229.32,660.51,229.32,660.04 L229.6,660.26 C229.6,661.03,229.22,661.63,228.47,661.63 C227.02,661.63,226.42,659.7,225.82,657.76 C224.75,657.96,224.19,658.52,224.19,659.23 C224.19,659.51,224.42,660.6,225.02,661.29 C225.1,661.38,225.1,661.4,225.1,661.42 C225.1,661.46,225.08,661.52,224.98,661.52 C224.7,661.52,223.93,660.08,223.93,659.12 C223.93,658.19,224.59,657.46,225.66,657.22 Z "
         stroke-width="0"
         fill="black"
         id="path8267" /><path
         d="M233.25,654.85 L233.25,654.86 L233.25,654.86 L233.25,654.86 L233.25,654.87 L233.25,654.87 L233.25,654.87 L233.25,654.88 L233.24,654.88 L233.24,654.88 L233.24,654.89 L233.24,654.89 L233.24,654.9 L233.23,654.9 L233.23,654.91 L233.22,654.91 L233.22,654.92 L233.21,654.93 L233.21,654.93 L233.21,654.94 L233.2,654.94 L233.2,654.95 L233.19,654.95 L233.19,654.95 L233.19,654.96 L233.18,654.96 L233.18,654.97 L233.17,654.97 L233.17,654.98 L233.16,654.98 L233.16,654.99 L233.15,654.99 L233.15,655 L233.14,655.01 L233.14,655.01 L233.13,655.02 L233.12,655.03 L233.12,655.03 L233.11,655.04 L233.1,655.05 L233.1,655.05 L233.09,655.06 L233.08,655.07 C231.83,656.32,231.51,658.2,231.51,659.72 C231.51,661.45,231.89,663.17,233.12,664.42 C233.25,664.54,233.25,664.56,233.25,664.59 C233.25,664.66,233.21,664.68,233.15,664.68 C233.05,664.68,232.15,664.01,231.56,662.75 C231.06,661.66,230.94,660.55,230.94,659.72 C230.94,658.94,231.05,657.74,231.59,656.62 C232.19,655.4,233.05,654.75,233.15,654.75 C233.21,654.75,233.25,654.78,233.25,654.85 Z "
         stroke-width="0"
         fill="black"
         id="path8269" /><path
         d="M235.88,661.21 H236.82 C237.01,661.21,237.12,661.21,237.12,661.41 C237.12,661.52,237.01,661.52,236.84,661.52 H235.96 C236.32,662.93,236.37,663.13,236.37,663.18 C236.37,663.35,236.25,663.45,236.08,663.45 C236.05,663.45,235.77,663.44,235.68,663.1 L235.29,661.52 H234.35 C234.15,661.52,234.05,661.52,234.05,661.33 C234.05,661.21,234.13,661.21,234.33,661.21 H235.21 C234.49,658.39,234.45,658.22,234.45,658.04 C234.45,657.5,234.83,657.13,235.37,657.13 C236.39,657.13,236.96,658.58,236.96,658.66 C236.96,658.76,236.88,658.76,236.84,658.76 C236.75,658.76,236.74,658.72,236.69,658.62 C236.26,657.58,235.73,657.34,235.39,657.34 C235.18,657.34,235.08,657.47,235.08,657.8 C235.08,658.04,235.1,658.11,235.14,658.28 Z "
         stroke-width="0"
         fill="black"
         id="path8271" /><path
         d="M239.69,660.09 L239.69,660.1 L239.69,660.11 L239.68,660.12 L239.68,660.13 L239.68,660.14 L239.68,660.15 L239.67,660.16 L239.67,660.18 L239.67,660.19 L239.66,660.2 L239.66,660.21 L239.65,660.22 L239.64,660.23 L239.64,660.24 L239.63,660.25 L239.62,660.26 L239.61,660.27 L239.6,660.28 L239.59,660.29 L239.58,660.3 L239.57,660.3 L239.56,660.31 L239.55,660.32 L239.53,660.33 L239.52,660.33 L239.51,660.34 L239.49,660.34 L239.47,660.34 L239.46,660.35 L239.44,660.35 L239.42,660.35 L239.41,660.35 C239.22,660.35,239.01,660.17,239.01,659.97 C239.01,659.85,239.11,659.71,239.29,659.71 C239.5,659.71,239.69,659.9,239.69,660.09 Z "
         stroke-width="0"
         fill="black"
         id="path8273" /><path
         d="M238.26,656.55 L238.25,656.54 L238.25,656.52 L238.24,656.49 L238.23,656.47 L238.23,656.45 L238.22,656.44 L238.22,656.42 L238.21,656.4 L238.21,656.38 L238.21,656.36 L238.2,656.35 L238.2,656.34 L238.2,656.33 L238.2,656.32 L238.2,656.31 L238.2,656.29 L238.2,656.28 L238.2,656.27 L238.2,656.26 C238.2,655.94,238.48,655.67,238.86,655.67 C239.56,655.67,239.87,656.63,239.87,656.73 C239.87,656.83,239.78,656.83,239.76,656.83 C239.66,656.83,239.65,656.78,239.62,656.71 C239.46,656.15,239.15,655.87,238.88,655.87 C238.74,655.87,238.71,655.96,238.71,656.11 C238.71,656.27,238.76,656.4,238.82,656.55 C238.89,656.74,238.97,656.93,239.04,657.11 C239.11,657.28,239.36,657.91,239.39,657.99 C239.41,658.06,239.43,658.15,239.43,658.22 C239.43,658.54,239.15,658.81,238.76,658.81 C238.07,658.81,237.75,657.86,237.75,657.74 C237.75,657.65,237.85,657.65,237.87,657.65 C237.97,657.65,237.97,657.69,237.99,657.76 C238.18,658.36,238.48,658.61,238.74,658.61 C238.85,658.61,238.92,658.56,238.92,658.37 C238.92,658.21,238.88,658.1,238.7,657.67 Z "
         stroke-width="0"
         fill="black"
         id="path8275" /><path
         d="M243.48,657.31 H245.62 C245.71,657.31,245.88,657.31,245.88,657.48 C245.88,657.65,245.71,657.65,245.62,657.65 H243.48 V659.79 C243.48,659.88,243.48,660.04,243.31,660.04 C243.13,660.04,243.13,659.89,243.13,659.79 V657.65 H240.99 C240.9,657.65,240.73,657.65,240.73,657.49 C240.73,657.31,240.89,657.31,240.99,657.31 H243.13 V655.18 C243.13,655.09,243.13,654.92,243.3,654.92 C243.48,654.92,243.48,655.08,243.48,655.18 Z "
         stroke-width="0"
         fill="black"
         id="path8277" /><path
         d="M248.7,660.16 L248.7,660.17 L248.7,660.18 L248.7,660.19 L248.7,660.2 L248.7,660.2 L248.7,660.21 L248.7,660.22 L248.7,660.23 L248.7,660.23 L248.7,660.24 L248.7,660.25 L248.7,660.25 L248.69,660.26 L248.69,660.26 L248.69,660.27 L248.69,660.27 L248.69,660.28 L248.69,660.28 L248.69,660.29 L248.69,660.3 L248.68,660.31 L248.68,660.31 L248.68,660.32 L248.67,660.33 L248.67,660.33 L248.66,660.34 L248.65,660.34 L248.65,660.34 L248.64,660.35 L248.63,660.35 L248.62,660.35 L248.61,660.35 L248.61,660.35 L248.6,660.35 L248.6,660.35 L248.59,660.36 L248.59,660.36 L248.58,660.36 L248.57,660.36 L248.57,660.36 L248.56,660.36 L248.55,660.36 L248.55,660.36 L248.54,660.36 L248.53,660.36 L248.52,660.36 L248.52,660.36 L248.51,660.36 L248.5,660.36 L248.49,660.36 C248.04,659.92,247.4,659.91,247.12,659.91 V659.66 C247.29,659.66,247.75,659.66,248.13,659.86 V656.31 C248.13,656.08,248.13,655.99,247.43,655.99 H247.17 V655.74 C247.29,655.75,248.15,655.77,248.41,655.77 C248.63,655.77,249.51,655.75,249.66,655.74 V655.99 H249.4 C248.7,655.99,248.7,656.08,248.7,656.31 Z "
         stroke-width="0"
         fill="black"
         id="path8279" /><path
         d="M253.71,659.72 L253.71,659.79 L253.71,659.87 L253.7,659.95 L253.7,660.03 L253.69,660.2 L253.68,660.37 L253.66,660.55 L253.64,660.74 L253.62,660.94 L253.58,661.14 L253.54,661.34 L253.5,661.55 L253.44,661.76 L253.38,661.97 L253.31,662.18 L253.23,662.39 L253.19,662.5 L253.15,662.61 L253.1,662.71 L253.05,662.82 C252.45,664.04,251.59,664.68,251.49,664.68 C251.43,664.68,251.39,664.65,251.39,664.59 C251.39,664.56,251.39,664.54,251.58,664.36 C252.56,663.37,253.13,661.79,253.13,659.72 C253.13,658.02,252.76,656.27,251.52,655.02 C251.39,654.9,251.39,654.88,251.39,654.85 C251.39,654.79,251.43,654.75,251.49,654.75 C251.59,654.75,252.49,655.43,253.08,656.69 C253.59,657.78,253.71,658.88,253.71,659.72 Z "
         stroke-width="0"
         fill="black"
         id="path8281" /></g>    <g
       style="font-style:normal;font-variant:normal;font-weight:normal;font-stretch:normal;letter-spacing:normal;word-spacing:normal;text-anchor:start;fill:none;fill-opacity:1;fill-rule:evenodd;stroke:#000000;stroke-linecap:butt;stroke-linejoin:miter;stroke-miterlimit:10.43299961;stroke-dasharray:none;stroke-dashoffset:0;stroke-opacity:1"
       ns0:preamble=""
       ns0:text="$\\varphi(t_i)$"
       text-anchor="start"
       word-spacing="normal"
       letter-spacing="normal"
       font-size-adjust="none"
       font-stretch="normal"
       font-weight="normal"
       font-variant="normal"
       font-style="normal"
       fill-opacity="1"
       fill-rule="evenodd"
       fill="none"
       stroke-opacity="1"
       stroke-dashoffset="0"
       stroke-dasharray="none"
       stroke-miterlimit="10.433"
       stroke-linejoin="miter"
       stroke-linecap="butt"
       stroke="black"
       xml:space="preserve"
       transform="matrix(3,0,0,-3,-13.005101,3009.8763)"
       id="g8488"><path
         id="path8490"
         fill="black"
         stroke-width="0"
         d="M225.13,655.55 L225.13,655.54 L225.12,655.53 L225.12,655.53 L225.12,655.52 L225.12,655.51 L225.11,655.5 L225.11,655.49 L225.11,655.48 L225.1,655.48 L225.1,655.47 L225.1,655.46 L225.1,655.45 L225.1,655.45 L225.09,655.44 L225.09,655.43 L225.09,655.43 L225.09,655.42 L225.09,655.42 L225.09,655.41 L225.08,655.41 L225.08,655.4 L225.08,655.4 L225.08,655.39 L225.08,655.39 L225.08,655.38 L225.08,655.37 L225.08,655.37 L225.08,655.36 L225.08,655.35 L225.08,655.35 C225.08,655.13,225.27,655.07,225.37,655.07 C225.42,655.07,225.64,655.1,225.74,655.33 C225.76,655.41,225.82,655.73,226.09,657.15 C226.17,657.14,226.24,657.13,226.41,657.13 C228.07,657.13,229.6,658.68,229.6,660.26 L229.32,660.04 C229.32,658.91,228.04,657.7,226.5,657.7 H226.5 C226.42,657.7,226.4,657.7,226.32,657.71 C226.2,657.71,226.19,657.72,226.19,657.75 C226.19,657.77,226.36,658.67,226.39,658.82 C226.7,660.1,227.48,661.05,228.37,661.05 C229.06,661.05,229.32,660.51,229.32,660.04 L229.6,660.26 C229.6,661.03,229.22,661.63,228.47,661.63 C227.02,661.63,226.42,659.7,225.82,657.76 C224.75,657.96,224.19,658.52,224.19,659.23 C224.19,659.51,224.42,660.6,225.02,661.29 C225.1,661.38,225.1,661.4,225.1,661.42 C225.1,661.46,225.08,661.52,224.98,661.52 C224.7,661.52,223.93,660.08,223.93,659.12 C223.93,658.19,224.59,657.46,225.66,657.22 Z " /><path
         id="path8492"
         fill="black"
         stroke-width="0"
         d="M233.25,654.85 L233.25,654.86 L233.25,654.86 L233.25,654.86 L233.25,654.87 L233.25,654.87 L233.25,654.87 L233.25,654.88 L233.24,654.88 L233.24,654.88 L233.24,654.89 L233.24,654.89 L233.24,654.9 L233.23,654.9 L233.23,654.91 L233.22,654.91 L233.22,654.92 L233.21,654.93 L233.21,654.93 L233.21,654.94 L233.2,654.94 L233.2,654.95 L233.19,654.95 L233.19,654.95 L233.19,654.96 L233.18,654.96 L233.18,654.97 L233.17,654.97 L233.17,654.98 L233.16,654.98 L233.16,654.99 L233.15,654.99 L233.15,655 L233.14,655.01 L233.14,655.01 L233.13,655.02 L233.12,655.03 L233.12,655.03 L233.11,655.04 L233.1,655.05 L233.1,655.05 L233.09,655.06 L233.08,655.07 C231.83,656.32,231.51,658.2,231.51,659.72 C231.51,661.45,231.89,663.17,233.12,664.42 C233.25,664.54,233.25,664.56,233.25,664.59 C233.25,664.66,233.21,664.68,233.15,664.68 C233.05,664.68,232.15,664.01,231.56,662.75 C231.06,661.66,230.94,660.55,230.94,659.72 C230.94,658.94,231.05,657.74,231.59,656.62 C232.19,655.4,233.05,654.75,233.15,654.75 C233.21,654.75,233.25,654.78,233.25,654.85 Z " /><path
         id="path8494"
         fill="black"
         stroke-width="0"
         d="M235.88,661.21 H236.82 C237.01,661.21,237.12,661.21,237.12,661.41 C237.12,661.52,237.01,661.52,236.84,661.52 H235.96 C236.32,662.93,236.37,663.13,236.37,663.18 C236.37,663.35,236.25,663.45,236.08,663.45 C236.05,663.45,235.77,663.44,235.68,663.1 L235.29,661.52 H234.35 C234.15,661.52,234.05,661.52,234.05,661.33 C234.05,661.21,234.13,661.21,234.33,661.21 H235.21 C234.49,658.39,234.45,658.22,234.45,658.04 C234.45,657.5,234.83,657.13,235.37,657.13 C236.39,657.13,236.96,658.58,236.96,658.66 C236.96,658.76,236.88,658.76,236.84,658.76 C236.75,658.76,236.74,658.72,236.69,658.62 C236.26,657.58,235.73,657.34,235.39,657.34 C235.18,657.34,235.08,657.47,235.08,657.8 C235.08,658.04,235.1,658.11,235.14,658.28 Z " /><path
         id="path8496"
         fill="black"
         stroke-width="0"
         d="M239.69,660.09 L239.69,660.1 L239.69,660.11 L239.68,660.12 L239.68,660.13 L239.68,660.14 L239.68,660.15 L239.67,660.16 L239.67,660.18 L239.67,660.19 L239.66,660.2 L239.66,660.21 L239.65,660.22 L239.64,660.23 L239.64,660.24 L239.63,660.25 L239.62,660.26 L239.61,660.27 L239.6,660.28 L239.59,660.29 L239.58,660.3 L239.57,660.3 L239.56,660.31 L239.55,660.32 L239.53,660.33 L239.52,660.33 L239.51,660.34 L239.49,660.34 L239.47,660.34 L239.46,660.35 L239.44,660.35 L239.42,660.35 L239.41,660.35 C239.22,660.35,239.01,660.17,239.01,659.97 C239.01,659.85,239.11,659.71,239.29,659.71 C239.5,659.71,239.69,659.9,239.69,660.09 Z " /><path
         id="path8498"
         fill="black"
         stroke-width="0"
         d="M238.26,656.55 L238.25,656.54 L238.25,656.52 L238.24,656.49 L238.23,656.47 L238.23,656.45 L238.22,656.44 L238.22,656.42 L238.21,656.4 L238.21,656.38 L238.21,656.36 L238.2,656.35 L238.2,656.34 L238.2,656.33 L238.2,656.32 L238.2,656.31 L238.2,656.29 L238.2,656.28 L238.2,656.27 L238.2,656.26 C238.2,655.94,238.48,655.67,238.86,655.67 C239.56,655.67,239.87,656.63,239.87,656.73 C239.87,656.83,239.78,656.83,239.76,656.83 C239.66,656.83,239.65,656.78,239.62,656.71 C239.46,656.15,239.15,655.87,238.88,655.87 C238.74,655.87,238.71,655.96,238.71,656.11 C238.71,656.27,238.76,656.4,238.82,656.55 C238.89,656.74,238.97,656.93,239.04,657.11 C239.11,657.28,239.36,657.91,239.39,657.99 C239.41,658.06,239.43,658.15,239.43,658.22 C239.43,658.54,239.15,658.81,238.76,658.81 C238.07,658.81,237.75,657.86,237.75,657.74 C237.75,657.65,237.85,657.65,237.87,657.65 C237.97,657.65,237.97,657.69,237.99,657.76 C238.18,658.36,238.48,658.61,238.74,658.61 C238.85,658.61,238.92,658.56,238.92,658.37 C238.92,658.21,238.88,658.1,238.7,657.67 Z " /><path
         id="path8500"
         fill="black"
         stroke-width="0"
         d="M243.62,659.72 L243.62,659.79 L243.62,659.87 L243.62,659.95 L243.61,660.03 L243.61,660.2 L243.59,660.37 L243.58,660.55 L243.56,660.74 L243.53,660.94 L243.5,661.14 L243.46,661.34 L243.41,661.55 L243.36,661.76 L243.3,661.97 L243.23,662.18 L243.15,662.39 L243.1,662.5 L243.06,662.61 L243.01,662.71 L242.96,662.82 C242.36,664.04,241.51,664.68,241.41,664.68 C241.35,664.68,241.31,664.65,241.31,664.59 C241.31,664.56,241.31,664.54,241.5,664.36 C242.47,663.37,243.04,661.79,243.04,659.72 C243.04,658.02,242.67,656.27,241.44,655.02 C241.31,654.9,241.31,654.88,241.31,654.85 C241.31,654.79,241.35,654.75,241.41,654.75 C241.51,654.75,242.4,655.43,242.99,656.69 C243.5,657.78,243.62,658.88,243.62,659.72 Z " /></g>  </g>
</svg>
