<?xml version="1.0" encoding="UTF-8" standalone="no"?>
<!-- Created with Inkscape (http://www.inkscape.org/) -->

<svg
   xmlns:ns0="http://www.iki.fi/pav/software/textext/"
   xmlns:dc="http://purl.org/dc/elements/1.1/"
   xmlns:cc="http://creativecommons.org/ns#"
   xmlns:rdf="http://www.w3.org/1999/02/22-rdf-syntax-ns#"
   xmlns:svg="http://www.w3.org/2000/svg"
   xmlns="http://www.w3.org/2000/svg"
   xmlns:sodipodi="http://sodipodi.sourceforge.net/DTD/sodipodi-0.dtd"
   xmlns:inkscape="http://www.inkscape.org/namespaces/inkscape"
   width="630mm"
   height="320mm"
   viewBox="0 0 2232.2835 1133.8583"
   id="svg2"
   version="1.1"
   inkscape:version="0.91 r13725"
   sodipodi:docname="nodelife-max.svg">
  <sodipodi:namedview
     id="base"
     pagecolor="#ffffff"
     bordercolor="#666666"
     borderopacity="1.0"
     inkscape:pageopacity="0.0"
     inkscape:pageshadow="2"
     inkscape:zoom="0.54534646"
     inkscape:cx="1023.8849"
     inkscape:cy="546.58462"
     inkscape:document-units="px"
     inkscape:current-layer="layer1"
     showgrid="true"
     inkscape:window-width="2560"
     inkscape:window-height="1311"
     inkscape:window-x="0"
     inkscape:window-y="55"
     inkscape:window-maximized="1" />
  <defs
     id="defs4" />
  <metadata
     id="metadata7">
    <rdf:RDF>
      <cc:Work
         rdf:about="">
        <dc:format>image/svg+xml</dc:format>
        <dc:type
           rdf:resource="http://purl.org/dc/dcmitype/StillImage" />
        <dc:title />
      </cc:Work>
    </rdf:RDF>
  </metadata>
  <g
     inkscape:label="Layer 1"
     inkscape:groupmode="layer"
     id="layer1"
     transform="translate(0,81.496063)">
    <path
       style="fill:none;fill-rule:evenodd;stroke:#000000;stroke-width:5;stroke-linecap:butt;stroke-linejoin:miter;stroke-miterlimit:4;stroke-dasharray:none;stroke-opacity:1"
       d="m 60,52.362183 0,899.999997 960,0"
       id="path8070"
       inkscape:connector-curvature="0" />
    <path
       style="fill:none;fill-rule:evenodd;stroke:#000000;stroke-width:3;stroke-linecap:butt;stroke-linejoin:miter;stroke-miterlimit:4;stroke-dasharray:none;stroke-opacity:1"
       d="m 123.14395,125.02208 c 0,0 75.03658,343.90889 214.61832,365.18648 C 401.05565,499.85689 431.92601,361.08341 480,361.13222 632.02882,361.28657 630.93797,728.71999 750.37296,750.20856 869.80794,771.69712 943.14395,585.02208 943.14395,585.02208"
       id="path8072"
       inkscape:connector-curvature="0"
       sodipodi:nodetypes="caszc" />
    <path
       style="fill:none;fill-rule:evenodd;stroke:#000000;stroke-width:5;stroke-linecap:butt;stroke-linejoin:miter;stroke-miterlimit:4;stroke-dasharray:none;stroke-opacity:1"
       d="m 1196.6739,52.703532 0,899.999998 960,0"
       id="path8070-2"
       inkscape:connector-curvature="0" />
    <path
       style="fill:none;fill-rule:evenodd;stroke:#000000;stroke-width:5;stroke-linecap:butt;stroke-linejoin:miter;stroke-miterlimit:4;stroke-dasharray:none;stroke-opacity:1"
       d="M 1200,952.36218 2140,52.362183"
       id="path8092"
       inkscape:connector-curvature="0" />
    <path
       style="fill:none;fill-rule:evenodd;stroke:#000000;stroke-width:3;stroke-linecap:butt;stroke-linejoin:miter;stroke-miterlimit:4;stroke-dasharray:6,6;stroke-dashoffset:0;stroke-opacity:1"
       d="m 754.21562,752.54202 650.25468,0 -3.9282,-773.022463"
       id="path8094"
       inkscape:connector-curvature="0"
       sodipodi:nodetypes="ccc" />
    <path
       style="fill:none;fill-rule:evenodd;stroke:#000000;stroke-width:3;stroke-linecap:butt;stroke-linejoin:miter;stroke-miterlimit:4;stroke-dasharray:6,6;stroke-dashoffset:0;stroke-opacity:1"
       d="m 339.96511,491.61627 1342.07739,0"
       id="path8096"
       inkscape:connector-curvature="0" />
    <path
       style="fill:none;fill-rule:evenodd;stroke:#000000;stroke-width:3;stroke-linecap:butt;stroke-linejoin:miter;stroke-miterlimit:4;stroke-dasharray:6,6;stroke-dashoffset:0;stroke-opacity:1"
       d="m 475.8593,362.56068 1205.8559,0"
       id="path8102"
       inkscape:connector-curvature="0" />
    <path
       style="fill:none;fill-rule:evenodd;stroke:#000000;stroke-width:3;stroke-linecap:butt;stroke-linejoin:miter;stroke-miterlimit:4;stroke-dasharray:6, 6;stroke-dashoffset:0;stroke-opacity:1"
       d="m 1683.0119,493.51924 -2.5932,-125.77208"
       id="path8104"
       inkscape:connector-curvature="0" />
    <path
       style="fill:none;fill-rule:evenodd;stroke:#000000;stroke-width:5;stroke-linecap:butt;stroke-linejoin:miter;stroke-miterlimit:4;stroke-dasharray:none;stroke-opacity:1"
       d="m 1199.3729,52.668657 -53.1614,-7.779716 95.9498,-6.483097 -68.7208,-6.483097 46.6783,-5.186477 -22.0426,-10.372955 -1.2966,-25.9323879"
       id="path8110"
       inkscape:connector-curvature="0"
       sodipodi:nodetypes="ccccccc" />
    <ellipse
       style="opacity:0.98999999;fill:#000000;fill-opacity:1;stroke:none;stroke-width:2.90146518;stroke-miterlimit:4;stroke-dasharray:5.80293007, 5.80293007;stroke-dashoffset:0;stroke-opacity:1"
       id="path8112"
       cx="1401.6112"
       cy="-9.9240351"
       rx="25.049269"
       ry="25.049267" />
    <ellipse
       style="opacity:0.98999999;fill:#000000;fill-opacity:1;stroke:none;stroke-width:2.90146518;stroke-miterlimit:4;stroke-dasharray:5.80293007, 5.80293007;stroke-dashoffset:0;stroke-opacity:1"
       id="path8112-9-3"
       cx="1678.0931"
       cy="358.51932"
       rx="25.049269"
       ry="25.049267" />
    <g
       style="font-style:normal;font-variant:normal;font-weight:normal;font-stretch:normal;letter-spacing:normal;word-spacing:normal;text-anchor:start;fill:none;fill-opacity:1;fill-rule:evenodd;stroke:#000000;stroke-linecap:butt;stroke-linejoin:miter;stroke-miterlimit:10.43299961;stroke-dasharray:none;stroke-dashoffset:0;stroke-opacity:1"
       id="content"
       transform="matrix(8.232,0,0,-8.232,-686.36398,5390.795)"
       xml:space="preserve"
       stroke-miterlimit="10.433"
       font-style="normal"
       font-variant="normal"
       font-weight="normal"
       font-stretch="normal"
       font-size-adjust="none"
       letter-spacing="normal"
       word-spacing="normal"
       ns0:text="$\\infty$"
       ns0:preamble=""><path
         style="fill:#000000;stroke-width:0"
         inkscape:connector-curvature="0"
         d="m 228.5,659.93 -0.05,0.06 -0.05,0.06 -0.04,0.05 -0.05,0.06 -0.04,0.05 -0.03,0.05 -0.04,0.04 -0.04,0.04 -0.03,0.05 -0.03,0.04 -0.03,0.03 -0.03,0.04 -0.03,0.03 -0.03,0.03 -0.03,0.03 -0.02,0.03 -0.03,0.03 -0.02,0.03 -0.03,0.02 -0.02,0.03 -0.05,0.05 -0.04,0.04 -0.05,0.05 -0.05,0.04 -0.05,0.04 -0.03,0.03 -0.03,0.02 c -0.56,0.45 -1.12,0.63 -1.63,0.63 -1.16,0 -1.92,-1.1 -1.92,-2.26 l 0.22,0 c 0,0.97 0.67,1.78 1.55,1.78 0.57,0 1.02,-0.42 1.23,-0.63 0.25,-0.26 0.48,-0.57 1.09,-1.36 l 0,0 c -0.41,-0.71 -1.15,-1.72 -2.28,-1.72 -1.05,0 -1.59,1.04 -1.59,1.93 l -0.22,0 c 0,-1.14 0.74,-2.24 1.89,-2.24 1.14,0 1.97,0.9 2.46,1.69 0.54,-0.67 0.66,-0.82 0.97,-1.07 0.55,-0.45 1.11,-0.62 1.62,-0.62 1.17,0 1.93,1.09 1.93,2.25 l -0.22,0 c 0,-0.97 -0.67,-1.78 -1.55,-1.78 -0.58,0 -1.03,0.42 -1.24,0.63 -0.24,0.27 -0.47,0.57 -1.08,1.36 l 0,0 c 0.41,0.71 1.14,1.72 2.27,1.72 1.06,0 1.6,-1.03 1.6,-1.93 l 0.22,0 c 0,1.14 -0.74,2.25 -1.89,2.25 -1.15,0 -1.97,-0.91 -2.46,-1.7 z"
         id="path8164" /></g>    <path
       inkscape:connector-curvature="0"
       id="path8223"
       d="m 121.02398,927.67084 0,51.3435"
       style="fill:none;fill-rule:evenodd;stroke:#000000;stroke-width:1px;stroke-linecap:butt;stroke-linejoin:miter;stroke-opacity:1" />
    <path
       inkscape:connector-curvature="0"
       id="path8223-6"
       d="m 341.98443,926.75399 0,51.3435"
       style="fill:none;fill-rule:evenodd;stroke:#000000;stroke-width:1px;stroke-linecap:butt;stroke-linejoin:miter;stroke-opacity:1" />
    <path
       inkscape:connector-curvature="0"
       id="path8223-8"
       d="m 485.01277,928.58769 0,51.3435"
       style="fill:none;fill-rule:evenodd;stroke:#000000;stroke-width:1px;stroke-linecap:butt;stroke-linejoin:miter;stroke-opacity:1" />
    <path
       inkscape:connector-curvature="0"
       id="path8223-0"
       d="m 773.82,926.75399 0,51.3435"
       style="fill:none;fill-rule:evenodd;stroke:#000000;stroke-width:1px;stroke-linecap:butt;stroke-linejoin:miter;stroke-opacity:1" />
    <path
       inkscape:connector-curvature="0"
       id="path8223-2"
       d="m 947.10434,926.75399 0,51.3435"
       style="fill:none;fill-rule:evenodd;stroke:#000000;stroke-width:1px;stroke-linecap:butt;stroke-linejoin:miter;stroke-opacity:1" />
    <g
       id="g8385"
       transform="matrix(8.232,0,0,-8.232,-1529.748,6430.2285)"
       xml:space="preserve"
       stroke-miterlimit="10.433"
       font-style="normal"
       font-variant="normal"
       font-weight="normal"
       font-stretch="normal"
       font-size-adjust="none"
       letter-spacing="normal"
       word-spacing="normal"
       ns0:text="$t_2$"
       ns0:preamble=""
       style="font-style:normal;font-variant:normal;font-weight:normal;font-stretch:normal;letter-spacing:normal;word-spacing:normal;text-anchor:start;fill:none;fill-opacity:1;fill-rule:evenodd;stroke:#000000;stroke-linecap:butt;stroke-linejoin:miter;stroke-miterlimit:10.43299961;stroke-dasharray:none;stroke-dashoffset:0;stroke-opacity:1"><path
         style="fill:#000000;stroke-width:0"
         inkscape:connector-curvature="0"
         d="m 225.49,661.21 0.93,0 c 0.2,0 0.3,0 0.3,0.2 0,0.11 -0.1,0.11 -0.28,0.11 l -0.87,0 c 0.36,1.41 0.41,1.61 0.41,1.66 0,0.17 -0.13,0.27 -0.29,0.27 -0.03,0 -0.31,-0.01 -0.4,-0.35 l -0.39,-1.58 -0.94,0 c -0.2,0 -0.3,0 -0.3,-0.19 0,-0.12 0.08,-0.12 0.28,-0.12 l 0.88,0 c -0.72,-2.82 -0.76,-2.99 -0.76,-3.17 0,-0.54 0.38,-0.91 0.92,-0.91 1.01,0 1.58,1.45 1.58,1.53 0,0.1 -0.08,0.1 -0.12,0.1 -0.09,0 -0.1,-0.04 -0.15,-0.14 -0.42,-1.04 -0.95,-1.28 -1.29,-1.28 -0.21,0 -0.31,0.13 -0.31,0.46 0,0.24 0.02,0.31 0.06,0.48 z"
         id="path8387" /><path
         style="fill:#000000;stroke-width:0"
         inkscape:connector-curvature="0"
         d="m 230.56,657.01 -0.24,0 c -0.02,-0.16 -0.09,-0.57 -0.18,-0.64 -0.05,-0.04 -0.59,-0.04 -0.69,-0.04 l -1.29,0 c 0.74,0.65 0.98,0.84 1.4,1.17 0.52,0.41 1,0.84 1,1.5 0,0.84 -0.74,1.36 -1.63,1.36 -0.87,0 -1.46,-0.61 -1.46,-1.25 0,-0.35 0.3,-0.39 0.37,-0.39 0.17,0 0.37,0.12 0.37,0.37 0,0.13 -0.05,0.37 -0.41,0.37 0.22,0.5 0.69,0.65 1.02,0.65 0.7,0 1.06,-0.54 1.06,-1.11 0,-0.6 -0.43,-1.08 -0.65,-1.33 l -1.69,-1.66 c -0.07,-0.06 -0.07,-0.07 -0.07,-0.27 l 2.88,0 z"
         id="path8389" /></g>    <g
       style="font-style:normal;font-variant:normal;font-weight:normal;font-stretch:normal;letter-spacing:normal;word-spacing:normal;text-anchor:start;fill:none;fill-opacity:1;fill-rule:evenodd;stroke:#000000;stroke-linecap:butt;stroke-linejoin:miter;stroke-miterlimit:10.43299961;stroke-dasharray:none;stroke-dashoffset:0;stroke-opacity:1"
       ns0:preamble=""
       ns0:text="$t_1$"
       text-anchor="start"
       word-spacing="normal"
       letter-spacing="normal"
       font-size-adjust="none"
       font-stretch="normal"
       font-weight="normal"
       font-variant="normal"
       font-style="normal"
       fill-opacity="1"
       fill-rule="evenodd"
       fill="none"
       stroke-opacity="1"
       stroke-dashoffset="0"
       stroke-dasharray="none"
       stroke-miterlimit="10.433"
       stroke-linejoin="miter"
       stroke-linecap="butt"
       stroke="black"
       xml:space="preserve"
       transform="matrix(8.232,0,0,-8.232,-1751.9535,6432.7022)"
       id="g8450"><path
         id="path8452"
         fill="black"
         stroke-width="0"
         d="M225.49,661.21 H226.42 C226.62,661.21,226.72,661.21,226.72,661.41 C226.72,661.52,226.62,661.52,226.44,661.52 H225.57 C225.93,662.93,225.98,663.13,225.98,663.18 C225.98,663.35,225.85,663.45,225.69,663.45 C225.66,663.45,225.38,663.44,225.29,663.1 L224.9,661.52 H223.96 C223.76,661.52,223.66,661.52,223.66,661.33 C223.66,661.21,223.74,661.21,223.94,661.21 H224.82 C224.1,658.39,224.06,658.22,224.06,658.04 C224.06,657.5,224.44,657.13,224.98,657.13 C225.99,657.13,226.56,658.58,226.56,658.66 C226.56,658.76,226.48,658.76,226.44,658.76 C226.35,658.76,226.34,658.72,226.29,658.62 C225.87,657.58,225.34,657.34,225,657.34 C224.79,657.34,224.69,657.47,224.69,657.8 C224.69,658.04,224.71,658.11,224.75,658.28 Z " /><path
         id="path8454"
         fill="black"
         stroke-width="0"
         d="M229.37,660.16 L229.37,660.17 L229.37,660.18 L229.37,660.19 L229.37,660.2 L229.37,660.2 L229.37,660.21 L229.37,660.22 L229.37,660.23 L229.37,660.23 L229.37,660.24 L229.37,660.25 L229.37,660.25 L229.37,660.26 L229.37,660.26 L229.37,660.27 L229.37,660.27 L229.37,660.28 L229.36,660.28 L229.36,660.29 L229.36,660.3 L229.36,660.31 L229.35,660.31 L229.35,660.32 L229.35,660.33 L229.34,660.33 L229.34,660.34 L229.33,660.34 L229.32,660.34 L229.31,660.35 L229.31,660.35 L229.3,660.35 L229.29,660.35 L229.28,660.35 L229.28,660.35 L229.27,660.35 L229.27,660.36 L229.26,660.36 L229.25,660.36 L229.25,660.36 L229.24,660.36 L229.23,660.36 L229.23,660.36 L229.22,660.36 L229.21,660.36 L229.21,660.36 L229.2,660.36 L229.19,660.36 L229.18,660.36 L229.17,660.36 L229.16,660.36 C228.71,659.92,228.08,659.91,227.79,659.91 V659.66 C227.96,659.66,228.42,659.66,228.81,659.86 V656.31 C228.81,656.08,228.81,655.99,228.11,655.99 H227.84 V655.74 C227.97,655.75,228.83,655.77,229.09,655.77 C229.3,655.77,230.18,655.75,230.34,655.74 V655.99 H230.07 C229.37,655.99,229.37,656.08,229.37,656.31 Z " /></g>    <g
       id="g8539"
       transform="matrix(8.232,0,0,-8.232,-1387.3072,6428.0542)"
       xml:space="preserve"
       stroke="black"
       stroke-linecap="butt"
       stroke-linejoin="miter"
       stroke-miterlimit="10.433"
       stroke-dasharray="none"
       stroke-dashoffset="0"
       stroke-opacity="1"
       fill="none"
       fill-rule="evenodd"
       fill-opacity="1"
       font-style="normal"
       font-variant="normal"
       font-weight="normal"
       font-stretch="normal"
       font-size-adjust="none"
       letter-spacing="normal"
       word-spacing="normal"
       text-anchor="start"
       ns0:text="$t_3$"
       ns0:preamble=""
       style="font-style:normal;font-variant:normal;font-weight:normal;font-stretch:normal;letter-spacing:normal;word-spacing:normal;text-anchor:start;fill:none;fill-opacity:1;fill-rule:evenodd;stroke:#000000;stroke-linecap:butt;stroke-linejoin:miter;stroke-miterlimit:10.43299961;stroke-dasharray:none;stroke-dashoffset:0;stroke-opacity:1"><path
         style="fill:#000000;stroke-width:0"
         inkscape:connector-curvature="0"
         d="m 225.49,660.7645 0.93,0 c 0.2,0 0.3,0 0.3,0.2 0,0.11 -0.1,0.11 -0.28,0.11 l -0.87,0 c 0.36,1.41 0.41,1.61 0.41,1.66 0,0.17 -0.13,0.27 -0.29,0.27 -0.03,0 -0.31,-0.01 -0.4,-0.35 l -0.39,-1.58 -0.94,0 c -0.2,0 -0.3,0 -0.3,-0.19 0,-0.12 0.08,-0.12 0.28,-0.12 l 0.88,0 c -0.72,-2.82 -0.76,-2.99 -0.76,-3.17 0,-0.54 0.38,-0.91 0.92,-0.91 1.01,0 1.58,1.45 1.58,1.53 0,0.1 -0.08,0.1 -0.12,0.1 -0.09,0 -0.1,-0.04 -0.15,-0.14 -0.42,-1.04 -0.95,-1.28 -1.29,-1.28 -0.21,0 -0.31,0.13 -0.31,0.46 0,0.24 0.02,0.31 0.06,0.48 z"
         id="path8541" /><path
         style="fill:#000000;stroke-width:0"
         inkscape:connector-curvature="0"
         d="m 228.94,657.6145 0.05,0 0.05,0 0.05,-0.01 0.05,0 0.04,-0.01 0.05,-0.02 0.04,-0.01 0.05,-0.02 0.04,-0.02 0.04,-0.02 0.04,-0.02 0.03,-0.02 0.04,-0.03 0.04,-0.03 0.03,-0.03 0.03,-0.04 0.03,-0.03 0.03,-0.04 0.03,-0.04 0.02,-0.05 0.03,-0.04 0.02,-0.05 0.02,-0.05 0.02,-0.05 0.01,-0.05 0.02,-0.06 0.01,-0.05 0.01,-0.06 0.01,-0.07 0,-0.06 0,-0.07 0.01,-0.07 c 0,-0.86 -0.51,-1.12 -0.91,-1.12 -0.28,0 -0.9,0.08 -1.19,0.49 0.33,0.02 0.4,0.24 0.4,0.39 0,0.22 -0.16,0.38 -0.38,0.38 -0.2,0 -0.39,-0.11 -0.39,-0.4 0,-0.65 0.72,-1.08 1.57,-1.08 0.97,0 1.64,0.65 1.64,1.34 0,0.55 -0.44,1.09 -1.21,1.25 0.73,0.26 1,0.78 1,1.21 0,0.55 -0.64,0.96 -1.42,0.96 -0.77,0 -1.37,-0.38 -1.37,-0.93 0,-0.24 0.16,-0.37 0.37,-0.37 0.22,0 0.36,0.16 0.36,0.35 0,0.2 -0.14,0.35 -0.36,0.36 0.24,0.31 0.72,0.39 0.98,0.39 0.32,0 0.76,-0.16 0.76,-0.76 0,-0.29 -0.1,-0.61 -0.28,-0.83 -0.23,-0.26 -0.43,-0.28 -0.78,-0.3 -0.17,-0.01 -0.19,-0.01 -0.22,-0.02 -0.02,0 -0.07,-0.01 -0.07,-0.09 0,-0.1 0.06,-0.1 0.18,-0.1 z"
         id="path8543" /></g>    <g
       style="font-style:normal;font-variant:normal;font-weight:normal;font-stretch:normal;letter-spacing:normal;word-spacing:normal;text-anchor:start;fill:none;fill-opacity:1;fill-rule:evenodd;stroke:#000000;stroke-linecap:butt;stroke-linejoin:miter;stroke-miterlimit:10.43299961;stroke-dasharray:none;stroke-dashoffset:0;stroke-opacity:1"
       ns0:preamble=""
       ns0:text="$t_4$"
       word-spacing="normal"
       letter-spacing="normal"
       font-size-adjust="none"
       font-stretch="normal"
       font-weight="normal"
       font-variant="normal"
       font-style="normal"
       stroke-miterlimit="10.433"
       xml:space="preserve"
       transform="matrix(8.232,0,0,-8.232,-1097.5833,6429.8878)"
       id="g8634"><path
         style="fill:#000000;stroke-width:0"
         inkscape:connector-curvature="0"
         id="path8636"
         d="m 225.49,661.21 0.93,0 c 0.2,0 0.3,0 0.3,0.2 0,0.11 -0.1,0.11 -0.28,0.11 l -0.87,0 c 0.36,1.41 0.41,1.61 0.41,1.66 0,0.17 -0.13,0.27 -0.29,0.27 -0.03,0 -0.31,-0.01 -0.4,-0.35 l -0.39,-1.58 -0.94,0 c -0.2,0 -0.3,0 -0.3,-0.19 0,-0.12 0.08,-0.12 0.28,-0.12 l 0.88,0 c -0.72,-2.82 -0.76,-2.99 -0.76,-3.17 0,-0.54 0.38,-0.91 0.92,-0.91 1.01,0 1.58,1.45 1.58,1.53 0,0.1 -0.08,0.1 -0.12,0.1 -0.09,0 -0.1,-0.04 -0.15,-0.14 -0.42,-1.04 -0.95,-1.28 -1.29,-1.28 -0.21,0 -0.31,0.13 -0.31,0.46 0,0.24 0.02,0.31 0.06,0.48 z" /><path
         style="fill:#000000;stroke-width:0"
         inkscape:connector-curvature="0"
         id="path8638"
         d="m 230.73,656.88 0,0.25 -0.78,0 0,3.1 c 0,0.15 0,0.2 -0.15,0.2 -0.09,0 -0.11,0 -0.18,-0.1 l -2.32,-3.2 0,-0.25 2.06,0 0.05,0.25 -1.85,0 1.85,2.55 0,-2.55 -0.05,-0.25 0,-0.57 c 0,-0.23 0,-0.32 -0.57,-0.32 l -0.19,0 0,-0.25 c 0.35,0.02 0.8,0.03 1.05,0.03 0.26,0 0.71,-0.01 1.06,-0.03 l 0,0.25 -0.19,0 c -0.57,0 -0.57,0.09 -0.57,0.32 l 0,0.57 z" /></g>    <g
       id="g8724"
       transform="matrix(8.232,0,0,-8.232,-923.38204,6428.0542)"
       xml:space="preserve"
       stroke-miterlimit="10.433"
       font-style="normal"
       font-variant="normal"
       font-weight="normal"
       font-stretch="normal"
       font-size-adjust="none"
       letter-spacing="normal"
       word-spacing="normal"
       ns0:text="$t_5$"
       ns0:preamble=""
       style="font-style:normal;font-variant:normal;font-weight:normal;font-stretch:normal;letter-spacing:normal;word-spacing:normal;text-anchor:start;fill:none;fill-opacity:1;fill-rule:evenodd;stroke:#000000;stroke-linecap:butt;stroke-linejoin:miter;stroke-miterlimit:10.43299961;stroke-dasharray:none;stroke-dashoffset:0;stroke-opacity:1"><path
         style="fill:#000000;stroke-width:0"
         inkscape:connector-curvature="0"
         d="m 225.49,661.21 0.93,0 c 0.2,0 0.3,0 0.3,0.2 0,0.11 -0.1,0.11 -0.28,0.11 l -0.87,0 c 0.36,1.41 0.41,1.61 0.41,1.66 0,0.17 -0.13,0.27 -0.29,0.27 -0.03,0 -0.31,-0.01 -0.4,-0.35 l -0.39,-1.58 -0.94,0 c -0.2,0 -0.3,0 -0.3,-0.19 0,-0.12 0.08,-0.12 0.28,-0.12 l 0.88,0 c -0.72,-2.82 -0.76,-2.99 -0.76,-3.17 0,-0.54 0.38,-0.91 0.92,-0.91 1.01,0 1.58,1.45 1.58,1.53 0,0.1 -0.08,0.1 -0.12,0.1 -0.09,0 -0.1,-0.04 -0.15,-0.14 -0.42,-1.04 -0.95,-1.28 -1.29,-1.28 -0.21,0 -0.31,0.13 -0.31,0.46 0,0.24 0.02,0.31 0.06,0.48 z"
         id="path8726" /><path
         style="fill:#000000;stroke-width:0"
         inkscape:connector-curvature="0"
         d="m 228.11,659.62 0.04,-0.01 0.03,0 0.03,-0.01 0.03,-0.01 0.03,0 0.03,-0.01 0.03,-0.01 0.02,0 0.03,-0.01 0.03,0 0.02,0 0.03,-0.01 0.02,0 0.02,0 0.02,-0.01 0.02,0 0.02,0 0.02,0 0.02,0 0.02,0 0.02,-0.01 0.02,0 0.01,0 0.02,0 0.01,0 0.02,0 0.01,0 0.02,0 0.01,0 0.01,0 0.01,0 0.01,0 c 0.92,0 1.47,0.63 1.47,0.73 0,0.08 -0.05,0.1 -0.08,0.1 -0.02,0 -0.03,0 -0.06,-0.02 -0.17,-0.06 -0.54,-0.2 -1.05,-0.2 -0.2,0 -0.57,0.01 -1.03,0.18 -0.07,0.04 -0.08,0.04 -0.09,0.04 -0.09,0 -0.09,-0.08 -0.09,-0.19 l 0,-2.05 c 0,-0.12 0,-0.2 0.11,-0.2 0.07,0 0.07,0.01 0.14,0.1 0.3,0.38 0.73,0.43 0.98,0.43 0.42,0 0.6,-0.33 0.64,-0.39 0.12,-0.23 0.17,-0.49 0.17,-0.89 0,-0.21 0,-0.62 -0.21,-0.93 -0.18,-0.25 -0.48,-0.42 -0.82,-0.42 -0.46,0 -0.92,0.26 -1.1,0.71 0.27,-0.02 0.4,0.16 0.4,0.34 0,0.3 -0.26,0.36 -0.35,0.36 -0.01,0 -0.35,0 -0.35,-0.38 0,-0.62 0.57,-1.25 1.41,-1.25 0.9,0 1.68,0.66 1.68,1.54 0,0.78 -0.6,1.51 -1.47,1.51 -0.3,0 -0.67,-0.08 -0.98,-0.34 z"
         id="path8728" /></g>    <g
       style="font-style:normal;font-variant:normal;font-weight:normal;font-stretch:normal;letter-spacing:normal;word-spacing:normal;text-anchor:start;fill:none;fill-opacity:1;fill-rule:evenodd;stroke:#000000;stroke-linecap:butt;stroke-linejoin:miter;stroke-miterlimit:10.43299961;stroke-dasharray:none;stroke-dashoffset:0;stroke-opacity:1"
       ns0:preamble=""
       ns0:text="$-f$"
       word-spacing="normal"
       letter-spacing="normal"
       font-size-adjust="none"
       font-stretch="normal"
       font-weight="normal"
       font-variant="normal"
       font-style="normal"
       stroke-miterlimit="10.433"
       xml:space="preserve"
       transform="matrix(8.232,0,0,-8.232,-884.76924,6027.3936)"
       id="g8179"><path
         id="path8181"
         d="m 230,659.52 0.04,0 0.03,0 0.03,0 0.01,0 0.02,0 0.01,0 0.02,0.01 0.01,0 0.02,0 0.01,0 0.02,0.01 0.01,0 0.01,0 0.01,0.01 0.02,0.01 0.01,0 0.01,0.01 0.01,0.01 0.01,0 0,0.01 0.01,0.01 0.01,0.01 0,0 0,0.01 0.01,0.01 0,0 0,0.01 0,0.01 0,0 0.01,0.01 0,0.01 0,0.01 0,0 0,0.01 0,0.01 0,0.01 0,0.01 c 0,0.2 -0.18,0.2 -0.35,0.2 l -5.39,0 c -0.17,0 -0.35,0 -0.35,-0.2 0,-0.2 0.18,-0.2 0.35,-0.2 z"
         inkscape:connector-curvature="0"
         style="fill:#000000;stroke-width:0" /><path
         id="path8183"
         d="m 234.84,661.21 0.86,0 c 0.2,0 0.3,0 0.3,0.2 0,0.11 -0.1,0.11 -0.27,0.11 l -0.83,0 0.21,1.13 c 0.04,0.21 0.18,0.91 0.24,1.03 0.09,0.19 0.26,0.34 0.47,0.34 0.04,0 0.3,0 0.49,-0.18 -0.44,-0.04 -0.54,-0.39 -0.54,-0.54 0,-0.22 0.18,-0.34 0.37,-0.34 0.26,0 0.55,0.21 0.55,0.59 0,0.46 -0.46,0.69 -0.87,0.69 -0.34,0 -0.97,-0.18 -1.27,-1.16 -0.06,-0.21 -0.09,-0.31 -0.33,-1.56 l -0.69,0 c -0.18,0 -0.29,0 -0.29,-0.19 0,-0.12 0.08,-0.12 0.27,-0.12 l 0.66,0 -0.74,-3.93 c -0.19,-0.96 -0.35,-1.86 -0.87,-1.86 -0.04,0 -0.29,0 -0.48,0.18 0.46,0.03 0.55,0.38 0.55,0.53 0,0.23 -0.18,0.35 -0.37,0.35 -0.26,0 -0.55,-0.22 -0.55,-0.6 0,-0.44 0.44,-0.68 0.85,-0.68 0.55,0 0.94,0.58 1.12,0.96 0.32,0.63 0.55,1.83 0.56,1.9 z"
         inkscape:connector-curvature="0"
         style="fill:#000000;stroke-width:0" /></g>  </g>
</svg>
