<?xml version="1.0" encoding="UTF-8" standalone="no"?>
<!-- Created with Inkscape (http://www.inkscape.org/) -->

<svg
   xmlns:ns0="http://www.iki.fi/pav/software/textext/"
   xmlns:dc="http://purl.org/dc/elements/1.1/"
   xmlns:cc="http://creativecommons.org/ns#"
   xmlns:rdf="http://www.w3.org/1999/02/22-rdf-syntax-ns#"
   xmlns:svg="http://www.w3.org/2000/svg"
   xmlns="http://www.w3.org/2000/svg"
   xmlns:sodipodi="http://sodipodi.sourceforge.net/DTD/sodipodi-0.dtd"
   xmlns:inkscape="http://www.inkscape.org/namespaces/inkscape"
   width="630mm"
   height="320mm"
   viewBox="0 0 2232.2835 1133.8583"
   id="svg2"
   version="1.1"
   inkscape:version="0.92.5 (0.92.5+68)"
   sodipodi:docname="pd.svg">
  <sodipodi:namedview
     id="base"
     pagecolor="#ffffff"
     bordercolor="#666666"
     borderopacity="1.0"
     inkscape:pageopacity="0.0"
     inkscape:pageshadow="2"
     inkscape:zoom="0.54534646"
     inkscape:cx="1063.5076"
     inkscape:cy="582.49518"
     inkscape:document-units="px"
     inkscape:current-layer="layer1"
     showgrid="true"
     inkscape:window-width="2560"
     inkscape:window-height="1311"
     inkscape:window-x="0"
     inkscape:window-y="55"
     inkscape:window-maximized="1" />
  <defs
     id="defs4" />
  <metadata
     id="metadata7">
    <rdf:RDF>
      <cc:Work
         rdf:about="">
        <dc:format>image/svg+xml</dc:format>
        <dc:type
           rdf:resource="http://purl.org/dc/dcmitype/StillImage" />
        <dc:title></dc:title>
      </cc:Work>
    </rdf:RDF>
  </metadata>
  <g
     transform="translate(0,81.496063)"
     id="layer1"
     inkscape:groupmode="layer"
     inkscape:label="Layer 1">
    <path
       inkscape:connector-curvature="0"
       id="path8070"
       d="m 60,52.362183 0,899.999997 960,0"
       style="fill:none;fill-rule:evenodd;stroke:#000000;stroke-width:5;stroke-linecap:butt;stroke-linejoin:miter;stroke-miterlimit:4;stroke-dasharray:none;stroke-opacity:1" />
    <path
       sodipodi:nodetypes="caszc"
       inkscape:connector-curvature="0"
       id="path8072"
       d="m 123.14395,753.10809 c 0,0 75.03658,-343.90889 214.61832,-365.18648 C 401.05565,378.27328 431.92601,517.04676 480,516.99795 632.02882,516.8436 630.93797,149.41018 750.37296,127.92161 869.80794,106.43305 943.14395,293.10809 943.14395,293.10809"
       style="fill:none;fill-rule:evenodd;stroke:#000000;stroke-width:3;stroke-linecap:butt;stroke-linejoin:miter;stroke-miterlimit:4;stroke-dasharray:none;stroke-opacity:1" />
    <path
       inkscape:connector-curvature="0"
       id="path8070-2"
       d="m 1196.6739,52.703532 0,899.999998 960,0"
       style="fill:none;fill-rule:evenodd;stroke:#000000;stroke-width:5;stroke-linecap:butt;stroke-linejoin:miter;stroke-miterlimit:4;stroke-dasharray:none;stroke-opacity:1" />
    <path
       inkscape:connector-curvature="0"
       id="path8092"
       d="M 1200,952.36218 2140,52.362183"
       style="fill:none;fill-rule:evenodd;stroke:#000000;stroke-width:5;stroke-linecap:butt;stroke-linejoin:miter;stroke-miterlimit:4;stroke-dasharray:none;stroke-opacity:1" />
    <path
       sodipodi:nodetypes="ccc"
       inkscape:connector-curvature="0"
       id="path8094"
       d="m 120.01315,752.32417 1283.86505,0 -7.756,-772.585926"
       style="fill:none;fill-rule:evenodd;stroke:#000000;stroke-width:3;stroke-linecap:butt;stroke-linejoin:miter;stroke-miterlimit:4;stroke-dasharray:6, 6;stroke-dashoffset:0;stroke-opacity:1" />
    <path
       inkscape:connector-curvature="0"
       id="path8096"
       d="m 480,517.54866 1180,0"
       style="fill:none;fill-rule:evenodd;stroke:#000000;stroke-width:3;stroke-linecap:butt;stroke-linejoin:miter;stroke-miterlimit:4;stroke-dasharray:6, 6;stroke-dashoffset:0;stroke-opacity:1" />
    <path
       inkscape:connector-curvature="0"
       id="path8102"
       d="m 341.01089,387.19645 1316.06861,0"
       style="fill:none;fill-rule:evenodd;stroke:#000000;stroke-width:3;stroke-linecap:butt;stroke-linejoin:miter;stroke-miterlimit:4;stroke-dasharray:6, 6;stroke-dashoffset:0;stroke-opacity:1" />
    <path
       inkscape:connector-curvature="0"
       id="path8104"
       d="m 1657.0795,512.96853 -2.5932,-125.77208"
       style="fill:none;fill-rule:evenodd;stroke:#000000;stroke-width:3;stroke-linecap:butt;stroke-linejoin:miter;stroke-miterlimit:4;stroke-dasharray:6, 6;stroke-dashoffset:0;stroke-opacity:1" />
    <path
       inkscape:connector-curvature="0"
       id="path8106"
       d="M 940.04904,292.54324 1891.7676,289.95"
       style="fill:none;fill-rule:evenodd;stroke:#000000;stroke-width:3;stroke-linecap:butt;stroke-linejoin:miter;stroke-miterlimit:4;stroke-dasharray:6, 6;stroke-dashoffset:0;stroke-opacity:1" />
    <path
       inkscape:connector-curvature="0"
       id="path8108"
       d="m 754.63247,125.27934 1128.05883,1.29662 3.8899,162.07742"
       style="fill:none;fill-rule:evenodd;stroke:#000000;stroke-width:3;stroke-linecap:butt;stroke-linejoin:miter;stroke-miterlimit:4;stroke-dasharray:6, 6;stroke-dashoffset:0;stroke-opacity:1" />
    <path
       sodipodi:nodetypes="ccccccc"
       inkscape:connector-curvature="0"
       id="path8110"
       d="m 1199.3729,52.668657 -53.1614,-7.779716 95.9498,-6.483097 -68.7208,-6.483097 46.6783,-5.186477 -22.0426,-10.372955 -1.2966,-25.9323879"
       style="fill:none;fill-rule:evenodd;stroke:#000000;stroke-width:5;stroke-linecap:butt;stroke-linejoin:miter;stroke-miterlimit:4;stroke-dasharray:none;stroke-opacity:1" />
    <ellipse
       ry="25.049267"
       rx="25.049269"
       cy="-9.9240351"
       cx="1396.1101"
       id="path8112"
       style="opacity:0.98999999;fill:#000000;fill-opacity:1;stroke:none;stroke-width:2.90146518;stroke-miterlimit:4;stroke-dasharray:5.80293007, 5.80293007;stroke-dashoffset:0;stroke-opacity:1" />
    <ellipse
       ry="25.049267"
       rx="25.049269"
       cy="133.68016"
       cx="1881.3728"
       id="path8112-9"
       style="opacity:0.98999999;fill:#000000;fill-opacity:1;stroke:none;stroke-width:2.90146518;stroke-miterlimit:4;stroke-dasharray:5.80293007, 5.80293007;stroke-dashoffset:0;stroke-opacity:1" />
    <ellipse
       ry="25.049267"
       rx="25.049269"
       cy="392.23141"
       cx="1652.1608"
       id="path8112-9-3"
       style="opacity:0.98999999;fill:#000000;fill-opacity:1;stroke:none;stroke-width:2.90146518;stroke-miterlimit:4;stroke-dasharray:5.80293007, 5.80293007;stroke-dashoffset:0;stroke-opacity:1" />
    <g
       ns0:preamble=""
       ns0:text="$\\infty$"
       word-spacing="normal"
       letter-spacing="normal"
       font-size-adjust="none"
       font-stretch="normal"
       font-weight="normal"
       font-variant="normal"
       font-style="normal"
       stroke-miterlimit="10.433"
       xml:space="preserve"
       transform="matrix(8.232,0,0,-8.232,-686.36398,5390.795)"
       id="content"
       style="font-style:normal;font-variant:normal;font-weight:normal;font-stretch:normal;letter-spacing:normal;word-spacing:normal;text-anchor:start;fill:none;fill-opacity:1;fill-rule:evenodd;stroke:#000000;stroke-linecap:butt;stroke-linejoin:miter;stroke-miterlimit:10.43299961;stroke-dasharray:none;stroke-dashoffset:0;stroke-opacity:1"><path
         id="path8164"
         d="m 228.5,659.93 -0.05,0.06 -0.05,0.06 -0.04,0.05 -0.05,0.06 -0.04,0.05 -0.03,0.05 -0.04,0.04 -0.04,0.04 -0.03,0.05 -0.03,0.04 -0.03,0.03 -0.03,0.04 -0.03,0.03 -0.03,0.03 -0.03,0.03 -0.02,0.03 -0.03,0.03 -0.02,0.03 -0.03,0.02 -0.02,0.03 -0.05,0.05 -0.04,0.04 -0.05,0.05 -0.05,0.04 -0.05,0.04 -0.03,0.03 -0.03,0.02 c -0.56,0.45 -1.12,0.63 -1.63,0.63 -1.16,0 -1.92,-1.1 -1.92,-2.26 l 0.22,0 c 0,0.97 0.67,1.78 1.55,1.78 0.57,0 1.02,-0.42 1.23,-0.63 0.25,-0.26 0.48,-0.57 1.09,-1.36 l 0,0 c -0.41,-0.71 -1.15,-1.72 -2.28,-1.72 -1.05,0 -1.59,1.04 -1.59,1.93 l -0.22,0 c 0,-1.14 0.74,-2.24 1.89,-2.24 1.14,0 1.97,0.9 2.46,1.69 0.54,-0.67 0.66,-0.82 0.97,-1.07 0.55,-0.45 1.11,-0.62 1.62,-0.62 1.17,0 1.93,1.09 1.93,2.25 l -0.22,0 c 0,-0.97 -0.67,-1.78 -1.55,-1.78 -0.58,0 -1.03,0.42 -1.24,0.63 -0.24,0.27 -0.47,0.57 -1.08,1.36 l 0,0 c 0.41,0.71 1.14,1.72 2.27,1.72 1.06,0 1.6,-1.03 1.6,-1.93 l 0.22,0 c 0,1.14 -0.74,2.25 -1.89,2.25 -1.15,0 -1.97,-0.91 -2.46,-1.7 z"
         inkscape:connector-curvature="0"
         style="fill:#000000;stroke-width:0" /></g>    <path
       style="fill:none;fill-rule:evenodd;stroke:#000000;stroke-width:1px;stroke-linecap:butt;stroke-linejoin:miter;stroke-opacity:1"
       d="m 121.02398,927.67084 0,51.3435"
       id="path8223"
       inkscape:connector-curvature="0" />
    <path
       style="fill:none;fill-rule:evenodd;stroke:#000000;stroke-width:1px;stroke-linecap:butt;stroke-linejoin:miter;stroke-opacity:1"
       d="m 341.98443,926.75399 0,51.3435"
       id="path8223-6"
       inkscape:connector-curvature="0" />
    <path
       style="fill:none;fill-rule:evenodd;stroke:#000000;stroke-width:1px;stroke-linecap:butt;stroke-linejoin:miter;stroke-opacity:1"
       d="m 485.01277,928.58769 0,51.3435"
       id="path8223-8"
       inkscape:connector-curvature="0" />
    <path
       style="fill:none;fill-rule:evenodd;stroke:#000000;stroke-width:1px;stroke-linecap:butt;stroke-linejoin:miter;stroke-opacity:1"
       d="m 773.82,926.75399 0,51.3435"
       id="path8223-0"
       inkscape:connector-curvature="0" />
    <path
       style="fill:none;fill-rule:evenodd;stroke:#000000;stroke-width:1px;stroke-linecap:butt;stroke-linejoin:miter;stroke-opacity:1"
       d="m 947.10434,926.75399 0,51.3435"
       id="path8223-2"
       inkscape:connector-curvature="0" />
    <g
       style="font-style:normal;font-variant:normal;font-weight:normal;font-stretch:normal;letter-spacing:normal;word-spacing:normal;text-anchor:start;fill:none;fill-opacity:1;fill-rule:evenodd;stroke:#000000;stroke-linecap:butt;stroke-linejoin:miter;stroke-miterlimit:10.43299961;stroke-dasharray:none;stroke-dashoffset:0;stroke-opacity:1"
       ns0:preamble=""
       ns0:text="$f$"
       word-spacing="normal"
       letter-spacing="normal"
       font-size-adjust="none"
       font-stretch="normal"
       font-weight="normal"
       font-variant="normal"
       font-style="normal"
       stroke-miterlimit="10.433"
       xml:space="preserve"
       transform="matrix(8.232,0,0,-8.232,-910.441,5634.9825)"
       id="g8914"><path
         id="path8916"
         d="m 227.09,661.21 0.86,0 c 0.2,0 0.3,0 0.3,0.2 0,0.11 -0.1,0.11 -0.27,0.11 l -0.83,0 0.21,1.13 c 0.04,0.21 0.18,0.91 0.24,1.03 0.09,0.19 0.26,0.34 0.47,0.34 0.04,0 0.3,0 0.49,-0.18 -0.44,-0.04 -0.54,-0.39 -0.54,-0.54 0,-0.22 0.18,-0.34 0.37,-0.34 0.26,0 0.55,0.21 0.55,0.59 0,0.46 -0.46,0.69 -0.87,0.69 -0.34,0 -0.97,-0.18 -1.27,-1.16 -0.06,-0.21 -0.09,-0.31 -0.33,-1.56 l -0.68,0 c -0.19,0 -0.3,0 -0.3,-0.19 0,-0.12 0.09,-0.12 0.27,-0.12 l 0.66,0 -0.74,-3.93 c -0.18,-0.96 -0.35,-1.86 -0.87,-1.86 -0.04,0 -0.29,0 -0.48,0.18 0.46,0.03 0.55,0.38 0.55,0.53 0,0.23 -0.18,0.35 -0.37,0.35 -0.26,0 -0.55,-0.22 -0.55,-0.6 0,-0.44 0.44,-0.68 0.85,-0.68 0.55,0 0.95,0.58 1.12,0.96 0.32,0.63 0.55,1.83 0.56,1.9 z"
         inkscape:connector-curvature="0"
         style="fill:#000000;stroke-width:0" /></g>    <flowRoot
       xml:space="preserve"
       id="flowRoot4782"
       style="font-style:normal;font-weight:normal;font-size:25px;line-height:125%;font-family:sans-serif;letter-spacing:0px;word-spacing:0px;fill:#000000;fill-opacity:1;stroke:none;stroke-width:1px;stroke-linecap:butt;stroke-linejoin:miter;stroke-opacity:1"
       transform="matrix(0.93750002,0,0,0.93750002,260.13427,-226.35873)"><flowRegion
         id="flowRegion4784"><rect
           id="rect4786"
           width="147.81461"
           height="106.32278"
           x="-176.34024"
           y="1307.9919" /></flowRegion><flowPara
         id="flowPara4788"
         style="font-style:normal;font-variant:normal;font-weight:normal;font-stretch:normal;font-size:96px;font-family:cmmi10;-inkscape-font-specification:cmmi10">a</flowPara></flowRoot>    <flowRoot
       xml:space="preserve"
       id="flowRoot4782-6"
       style="font-style:normal;font-weight:normal;font-size:25px;line-height:125%;font-family:sans-serif;letter-spacing:0px;word-spacing:0px;fill:#000000;fill-opacity:1;stroke:none;stroke-width:1px;stroke-linecap:butt;stroke-linejoin:miter;stroke-opacity:1"
       transform="matrix(0.93750002,0,0,0.93750002,1091.7924,-217.29683)"><flowRegion
         id="flowRegion4784-4"><rect
           id="rect4786-3"
           width="147.81461"
           height="106.32278"
           x="-176.34024"
           y="1307.9919" /></flowRegion><flowPara
         id="flowPara4788-3"
         style="font-style:normal;font-variant:normal;font-weight:normal;font-stretch:normal;font-size:96px;font-family:cmmi10;-inkscape-font-specification:cmmi10">b</flowPara></flowRoot>  </g>
</svg>
